<svg xmlns="http://www.w3.org/2000/svg" xmlns:xlink="http://www.w3.org/1999/xlink" viewBox="0 0 886.07 507.87"><defs><style>.cls-1{fill:none;}.cls-10,.cls-2{fill:#cd2028;}.cls-3,.cls-7{fill:#002856;}.cls-13,.cls-4{fill:#fff;}.cls-5,.cls-6{fill:#221f1f;}.cls-10,.cls-11,.cls-12,.cls-13,.cls-14,.cls-15,.cls-6,.cls-7,.cls-8,.cls-9{fill-rule:evenodd;}.cls-8{fill:#c7c6bf;}.cls-9{fill:#c22428;}.cls-11{fill:#956627;}.cls-12{fill:#f3d2b2;}.cls-14{fill:#a0a59d;}.cls-15{fill:#79838b;}.cls-16{fill:#00a0df;}.cls-17{clip-path:url(#clip-path);}.cls-18{fill:url(#radial-gradient);}.cls-19{clip-path:url(#clip-path-2);}.cls-20{fill:url(#radial-gradient-2);}.cls-21{clip-path:url(#clip-path-3);}.cls-22{fill:url(#radial-gradient-3);}.cls-23{clip-path:url(#clip-path-4);}.cls-24{fill:url(#radial-gradient-4);}.cls-25{clip-path:url(#clip-path-5);}.cls-26{fill:url(#radial-gradient-5);}.cls-27{clip-path:url(#clip-path-6);}.cls-28{fill:url(#radial-gradient-6);}.cls-29{clip-path:url(#clip-path-7);}.cls-30{fill:url(#radial-gradient-7);}</style><clipPath id="clip-path"><path class="cls-1" d="M149.08,192.9c.58,4.81,4.32,8.81,8.27,9s6.89-3.57,6.31-8.39-4.31-8.87-8.32-9h-.23c-3.84,0-6.54,3.75-6,8.47"/></clipPath><radialGradient id="radial-gradient" cx="-1895.93" cy="1803.58" r="2.73" gradientTransform="matrix(3.1, 0, 0, -2.86, 6038.44, 5359.14)" gradientUnits="userSpaceOnUse"><stop offset="0" stop-color="#5eb3e4"/><stop offset="1" stop-color="#009ade"/></radialGradient><clipPath id="clip-path-2"><path class="cls-1" d="M184.51,187.85A72.12,72.12,0,0,0,198,185.42c-1.48-2.92-4.27-5-7.06-5.13h-.25c-3.69,0-6.3,3.28-6.13,7.57"/></clipPath><radialGradient id="radial-gradient-2" cx="-1619.74" cy="1997.66" r="2.73" gradientTransform="matrix(2.04, 0, 0, -1.88, 3496.6, 3947.7)" xlink:href="#radial-gradient"/><clipPath id="clip-path-3"><path class="cls-1" d="M245.69,11.61c-8.93,5.57-6.95,37-6.95,37a298.76,298.76,0,0,0,16.55-25c4.77-8.42,2-14.1-3.37-14.1a12,12,0,0,0-6.23,2.06"/></clipPath><radialGradient id="radial-gradient-3" cx="-2108.92" cy="1603.75" r="2.73" gradientTransform="matrix(5.99, -0.77, -0.84, -5.53, 14233.19, 7272.15)" xlink:href="#radial-gradient"/><clipPath id="clip-path-4"><path class="cls-1" d="M358.34,56.24c-18.83,5.94-37.27,9.59-37.27,9.59,8.9-.6,24.09,3.37,38.71,7.12s34.61,7.83,37.71-5c2.2-9.14-9.11-14.23-22.62-14.23a55.65,55.65,0,0,0-16.53,2.51"/></clipPath><radialGradient id="radial-gradient-4" cx="-2347.25" cy="1467.76" r="2.73" gradientTransform="matrix(31.25, -4.03, -4.37, -28.85, 80106.27, 32931.91)" xlink:href="#radial-gradient"/><clipPath id="clip-path-5"><path class="cls-1" d="M310.58,141.64c3.17,8.2,15.1,21.17,26.47,12.48s-.47-23.33-6.92-29.46S299.86,110,299.86,110c4.16,8.47,7.58,23.39,10.72,31.61"/></clipPath><radialGradient id="radial-gradient-5" cx="-2190.02" cy="1546.57" r="2.73" gradientTransform="matrix(8.41, -1.09, -1.18, -7.77, 20565.66, 9766.76)" xlink:href="#radial-gradient"/><clipPath id="clip-path-6"><path class="cls-1" d="M274.25,22.89c-8,5.11-23.22,15-32.39,35.3a240.45,240.45,0,0,1-16,28.85c22.65-2.84,30,11.55,30.27,22.84s4.93,16.24,17.45,18.44c11.07,1.94,15.39-5.19,15.35-12.26,0-9.31-13.26-20.86-13.26-20.86,9-6.91,18,1.29,32.3,2s17.64-11,11.85-17.24c-4.08-4.42-14.69-3.55-25.58-2.68-4.57.36-9.2.73-13.41.7-14.21-.09-9.21-4.75-.75-10s16.82-6.34,31.45-6.32c12.22,0,41.7-7.67,33-20-8.2-11.67-23.32-7.74-33-6s-29.29,13-36.89,22.81S257.92,69.1,259,62.09s25.53-15.46,31.6-28.47c4.19-9-.61-13.56-7.12-13.56a17.36,17.36,0,0,0-9.19,2.83"/></clipPath><radialGradient id="radial-gradient-6" cx="-2323.72" cy="1480.71" r="2.73" gradientTransform="matrix(21.9, -2.83, -3.06, -20.22, 55712.5, 23442.99)" xlink:href="#radial-gradient"/><clipPath id="clip-path-7"><path class="cls-1" d="M346.64,101.92s11.16,11,15,15,14.69,8.56,19.93-.86-7.9-15.16-16.6-15.5c-.8,0-1.57,0-2.33,0-7.49,0-12.85,1.37-16,1.43"/></clipPath><radialGradient id="radial-gradient-7" cx="-2249.68" cy="1095.93" r="2.73" gradientTransform="matrix(4.81, 2.61, -2.83, 4.44, 14288.39, 1108.1)" xlink:href="#radial-gradient"/></defs><g id="Layer_2" data-name="Layer 2"><g id="Layer_1-2" data-name="Layer 1"><polygon class="cls-2" points="869.23 458.22 871.15 449.5 270.3 449.5 268.46 458.22 869.23 458.22"/><polygon class="cls-3" points="359.14 357.51 355.31 375.07 317.46 375.07 314.25 389.77 351.25 389.77 347.6 406.43 310.42 406.43 303.66 439.75 278.15 439.75 295.78 357.51 359.14 357.51"/><path class="cls-3" d="M390.29,380.23l-12.84,59.52h-23l12.78-59.52ZM395,357.51l-3.26,15.71H368.83L372,357.51Z"/><path class="cls-3" d="M450.16,380.68l-8.45,17.61a21.74,21.74,0,0,0-4.73-.62,13.54,13.54,0,0,0-10.7,4.72q-4.11,4.71-6.37,15.09l-4.73,22.27h-23l12.72-59.52h21.46L423.74,392l.23.23q5.36-7.9,9.41-10.6a15.7,15.7,0,0,1,8.9-2.7,20.2,20.2,0,0,1,7.88,1.8"/><path class="cls-3" d="M511.22,394.48l-21.47,2.29q-.94-5.37-8.05-5.37c-2.78,0-4.88.49-6.31,1.5a4.36,4.36,0,0,0-2.14,3.54,4.13,4.13,0,0,0,1.89,3.45q1.89,1.38,10.11,2.55,13.25,2,17.6,5.92a13.59,13.59,0,0,1,4.36,10.58q0,9.19-8.56,15.71t-26.08,6.5q-14.31,0-20.94-4.15t-7.78-13.69l22.64-2q1.47,7.25,9.58,7.24a13.34,13.34,0,0,0,6.67-1.63,5.1,5.1,0,0,0,2.91-4.66,3.66,3.66,0,0,0-2.09-3.7,34.51,34.51,0,0,0-7.89-1.85q-13.35-2.07-18.08-6.29a13.57,13.57,0,0,1-4.73-10.59,17.52,17.52,0,0,1,3.55-10.22q3.55-5,10.73-7.87t17.66-2.9q12,0,18.39,3.51t8,12.09"/><path class="cls-3" d="M566.24,380.23l-3.49,16.32h-12l-4.39,21a9,9,0,0,0-.46,2.86c0,2.7,1.79,4,5.36,4a46.85,46.85,0,0,0,7.1-1.07l-3.44,16.33a125.65,125.65,0,0,1-15.2,1.4q-9.65,0-13.67-4.6a15,15,0,0,1-4-10,70,70,0,0,1,1.63-9.59L528,396.55h-8.22l3.37-16.32h8.39l2-9.31,25.62-12.74-4.72,22.05Z"/><path class="cls-3" d="M587.66,357.51h47q12.17,0,17.8,6.34a22.21,22.21,0,0,1,5.63,15.26,25.65,25.65,0,0,1-6,16.86q-6,7.2-19.08,9.23,7.75,6.27,18.58,34.55h-27q-3.39-8.92-8-19.49T609.73,408a9.21,9.21,0,0,0-5.58-1.69H602.8l-7,33.44H570.14Zm18.47,33.43H611q12.15,0,15.74-1.11A9.51,9.51,0,0,0,632,386a9.4,9.4,0,0,0,1.75-5.13A6.16,6.16,0,0,0,631.7,376c-1.39-1.2-4.42-1.8-9.07-1.8h-13Z"/><path class="cls-3" d="M695.74,378.88q16.07,0,23.4,8.08a27.21,27.21,0,0,1,7.35,18.91,37.7,37.7,0,0,1-4.22,16.77,31.87,31.87,0,0,1-12.7,13.52q-8.48,5-20.87,5-15.72,0-23.21-7.71A26.5,26.5,0,0,1,658,414.23a36.76,36.76,0,0,1,4.48-17.45,32.07,32.07,0,0,1,13-13.16q8.5-4.72,20.28-4.74m-5.57,46.85q6.42,0,10.18-6.54a28.35,28.35,0,0,0,3.78-14.5c0-3.85-1-6.56-2.87-8.11a9.88,9.88,0,0,0-6.37-2.33q-7.26,0-10.9,6.57a27.4,27.4,0,0,0-3.63,13.41,12.1,12.1,0,0,0,2.85,8.22,8.89,8.89,0,0,0,7,3.28"/><path class="cls-3" d="M739.47,396.56A20.67,20.67,0,0,1,749,383.49q7.41-4.61,23-4.61,17.64,0,23.79,4.41t6.17,12.82q0,5.59-3.09,18.45-2.88,12.18-2.87,16.94a24.9,24.9,0,0,0,1.46,8.25H775a31.49,31.49,0,0,1-.79-6.79q-9,8.19-20.11,8.19c-7.54,0-13-1.75-16.28-5.27a17.34,17.34,0,0,1-5-12.23q0-7.9,4.43-12.06A23.16,23.16,0,0,1,748.2,406a150.24,150.24,0,0,1,17.68-2.6q10-1.08,13.3-2.08a18.45,18.45,0,0,0,.68-4,4,4,0,0,0-2.29-3.59,11.85,11.85,0,0,0-6.06-1.35,14,14,0,0,0-6.39,1.27c-1.62.83-3.06,2.6-4.3,5.29Zm37.17,16.54q-15.82,2.64-18.59,4.67a5.81,5.81,0,0,0-2.76,4.76,5.64,5.64,0,0,0,2,4.52,7.7,7.7,0,0,0,5.08,1.65,13.46,13.46,0,0,0,8.58-3.51q4.25-3.49,5.72-12.09"/><path class="cls-3" d="M886.07,357.51l-17.74,82.24H847.09l1.13-5.94-.23-.28a30.29,30.29,0,0,1-8.76,6.05,24.87,24.87,0,0,1-9.32,1.57c-6.76,0-11.92-2.23-15.52-6.7S809,424,809,416.41q0-15.15,8.09-26.39t20.42-11.25q12.62,0,19,9.37l6.52-30.63Zm-46.86,68.67q6.36,0,9.77-7.1a33.35,33.35,0,0,0,3.41-14.5c0-3.49-.9-6.08-2.67-7.83a8.56,8.56,0,0,0-6.12-2.61q-5,0-8.62,6.37a30.68,30.68,0,0,0-3.6,15.35c0,3.36.72,5.93,2.17,7.68a7,7,0,0,0,5.66,2.64"/><polygon class="cls-3" points="449.35 467.79 451.82 469.18 453.74 465.63 450.56 463.87 449.1 466.69 446.52 465.4 444.71 468.77 447.95 470.54 449.35 467.79"/><path class="cls-3" d="M479.77,477.89,478.38,482a7.79,7.79,0,0,1,1.93,3.56H455.5c-1,0-1.78-1.35-2.2-4l-1.68-10.85a9.93,9.93,0,0,0-1.38,4.15,4.1,4.1,0,0,0,.1,1,21.59,21.59,0,0,0-4.38,2.92,15.94,15.94,0,0,0-1.76,3.08,13.22,13.22,0,0,0-1.22,3c0,.26.28.47.84.62l1.15.21,2.13.42a4.81,4.81,0,0,0,.85.1q1.05,0,3.46-3,.61,7.15,4.09,7.16h26.55V485.8a18.16,18.16,0,0,0-.5-4.86,8.26,8.26,0,0,0-1.78-3.05M449,481.53c-1.22,0-1.83-.17-1.83-.52s.35-.67,1.06-1.23a24.12,24.12,0,0,1,2.42-1.37l.35,2.1a4.11,4.11,0,0,1-2,1"/><polygon class="cls-3" points="477.12 494.46 474.53 493.17 472.71 496.54 475.97 498.31 477.37 495.56 479.85 496.95 481.78 493.41 478.59 491.64 477.12 494.46"/><polygon class="cls-3" points="496.66 472.92 492.51 470.76 490.49 474.69 494.57 476.81 496.66 472.92"/><path class="cls-3" d="M504.55,478a6.38,6.38,0,0,1-1.25-1.36c0-.38,1.88-1.16,5.65-2.32v-4.13a42.28,42.28,0,0,0-7.54,3.48,3.65,3.65,0,0,0-1.49,1.8,8.27,8.27,0,0,0-.25,2.46,3.09,3.09,0,0,0,.53,1.85,30.85,30.85,0,0,0,2.21,2.3l.56-.63,2.72,2.12a14.77,14.77,0,0,1,2,2H497.56v-.16a8.77,8.77,0,0,0-2.5-6.41l-1,4.7a7.69,7.69,0,0,1,1.53,2.12,4.6,4.6,0,0,1,.55,1.85c0,.94-1,2.26-2.9,4a21.27,21.27,0,0,1-3.28,2.52,5,5,0,0,1-2.41.68A8.8,8.8,0,0,1,483,493.1l-.73,1.09a46.34,46.34,0,0,0,4.79,3,7.65,7.65,0,0,0,3.33.87c1.33,0,2.88-.94,4.65-2.84s2.56-3.3,2.56-4.44v-.42h12.91v-4.87A26.5,26.5,0,0,0,507.4,481q-1.14-1.32-2.85-3"/><path class="cls-3" d="M537.27,478.68a3.9,3.9,0,0,0-2.35,1.24,10.07,10.07,0,0,0-2.53,3.62q-.9,2.06-4.17,2H526v-.15a8.74,8.74,0,0,0-2.49-6.41l-1,4.69a7.46,7.46,0,0,1,1.53,2.13,4.57,4.57,0,0,1,.56,1.84c0,.94-1,2.27-2.9,4a20.43,20.43,0,0,1-3.29,2.51,4.9,4.9,0,0,1-2.41.69,8.83,8.83,0,0,1-4.61-1.75l-.74,1.07a45.14,45.14,0,0,0,4.79,3,7.68,7.68,0,0,0,3.33.87q2,0,4.65-2.84t2.56-4.44v-.42h2.25a5,5,0,0,0,4.48-2.21,18.74,18.74,0,0,0,8.14,2.21v-3.79a12,12,0,0,0-1.36-5.21c-.87-1.78-1.61-2.67-2.21-2.67m-.07,6.67a24,24,0,0,1-3-1c.32-1.05.7-1.58,1.16-1.58s.89.35,1.45,1a3,3,0,0,1,.75,1.34c0,.17-.12.25-.38.25"/><polygon class="cls-3" points="564.89 475.96 567.37 477.35 569.28 473.81 566.12 472.04 564.65 474.86 562.07 473.57 560.26 476.94 563.5 478.71 564.89 475.96"/><path class="cls-3" d="M573.4,478l-1.56,4a12.62,12.62,0,0,1,2,3.57H561.16a16.52,16.52,0,0,1-3.67-.34,3,3,0,0,1-1.66-1,2.75,2.75,0,0,1-.65-1.77,8.65,8.65,0,0,1,1.31-3.76l-1-.69a12.27,12.27,0,0,0-2,4,10.44,10.44,0,0,0-.36,2.61,6.26,6.26,0,0,0,.92,3.34,4.54,4.54,0,0,0,2.37,2,14.32,14.32,0,0,0,4.31.44h14.68v-4.93a17.07,17.07,0,0,0-.32-3.85A10.41,10.41,0,0,0,573.4,478"/><path class="cls-3" d="M609.55,478.68a3.92,3.92,0,0,0-2.35,1.24,10.2,10.2,0,0,0-2.53,3.62c-.6,1.37-2,2-4.16,2H581.43q-1.73,0-1.72-6.17V476a11.19,11.19,0,0,0-1.9-6.79l-1.89,4.35a7.43,7.43,0,0,1,1,1.31,5.79,5.79,0,0,1,.49,2.63v5q0,4.38,1,6.22a3.12,3.12,0,0,0,3,1.68H600.5a5,5,0,0,0,4.48-2.21,18.74,18.74,0,0,0,8.14,2.21v-3.79a12,12,0,0,0-1.36-5.21c-.87-1.78-1.61-2.67-2.21-2.67m-.07,6.67a24.84,24.84,0,0,1-3-1c.31-1.05.7-1.58,1.15-1.58s.89.35,1.46,1a3,3,0,0,1,.75,1.34c0,.17-.13.25-.39.25"/><polygon class="cls-3" points="637.12 471.81 632.97 469.65 630.95 473.58 635.03 475.69 637.12 471.81"/><path class="cls-3" d="M640.08,483a38.29,38.29,0,0,0-4.18-4.09,5.73,5.73,0,0,0-3.41-1.3q-2.94,0-4.83,4.27a8.58,8.58,0,0,1,1.93-.24c2.09,0,4.44,1.33,7,4H625.4v-.85a19.86,19.86,0,0,0-.86-6.51,9.27,9.27,0,0,0-3.24-4.37l-1.25,5.43c2,1.26,3.21,3.35,3.67,6.3h-6c-1,0-1.6-.39-1.79-1.17l-.65,0a21.59,21.59,0,0,0-.31,3.46q0,2.43,2.52,2.43h26.68V485.6a6.56,6.56,0,0,1-2-.72,12,12,0,0,1-2-1.91"/><path class="cls-3" d="M668.33,478.17c-1.11,0-2.1.87-3,2.62a11.06,11.06,0,0,0-1.22,5,4.4,4.4,0,0,0,1,3.06,3.61,3.61,0,0,0,2.77,1.12,9.36,9.36,0,0,0,1.23-.11q-3.84,4.54-7.43,4.54a7.2,7.2,0,0,1-2.82-.56,16.7,16.7,0,0,1-2.54-1.45l-.74,1a46.27,46.27,0,0,0,5.29,3.64,6.78,6.78,0,0,0,3.18.93q2.46,0,5-2.93a9,9,0,0,0,2.56-5.94v-4.49a9.71,9.71,0,0,0-1-4.58c-.66-1.28-1.45-1.91-2.37-1.91m.62,7.46c-1.68,0-2.52-.48-2.52-1.45a1.47,1.47,0,0,1,.3-.89,1.07,1.07,0,0,1,.89-.47c1,0,1.66.94,2,2.81Z"/><polygon class="cls-3" points="695.75 475.96 698.22 477.35 700.14 473.81 696.97 472.04 695.5 474.86 692.92 473.57 691.11 476.94 694.36 478.71 695.75 475.96"/><path class="cls-3" d="M704.26,478l-1.57,4a12.64,12.64,0,0,1,2,3.57H692a16.39,16.39,0,0,1-3.67-.34,3,3,0,0,1-1.66-1,2.75,2.75,0,0,1-.65-1.77,8.65,8.65,0,0,1,1.31-3.76l-1-.69a12.48,12.48,0,0,0-2,4,10.42,10.42,0,0,0-.35,2.61,6.26,6.26,0,0,0,.92,3.34,4.46,4.46,0,0,0,2.37,2,14.28,14.28,0,0,0,4.31.44h14.67v-4.93a17.2,17.2,0,0,0-.31-3.85,10.6,10.6,0,0,0-1.76-3.57"/><path class="cls-3" d="M709.52,469.2q-2.06,3.89-2,5a18.14,18.14,0,0,0,.35,2c.3,1.47.55,2.93.74,4.41a61.45,61.45,0,0,1,.59,6.9,20.56,20.56,0,0,1-.42,3.63l1,.42a14.72,14.72,0,0,0,1.8-6.28,62.75,62.75,0,0,0-1-9.91Z"/><path class="cls-3" d="M726.14,483.72a7.38,7.38,0,0,1,1.52,2.13,4.57,4.57,0,0,1,.56,1.84c0,.94-1,2.27-2.91,4a20.8,20.8,0,0,1-3.28,2.52,5,5,0,0,1-2.41.69A8.8,8.8,0,0,1,715,493.1l-.73,1.08a44.13,44.13,0,0,0,4.79,3,7.64,7.64,0,0,0,3.32.87q2,0,4.66-2.84t2.55-4.44v-5.34a8.71,8.71,0,0,0-2.5-6.4Z"/><polygon class="cls-3" points="753.2 494.46 750.61 493.17 748.79 496.54 752.04 498.31 753.44 495.56 755.92 496.95 757.85 493.41 754.67 491.64 753.2 494.46"/><path class="cls-3" d="M777.57,481.53a2.11,2.11,0,0,0-.51,1.23,3.9,3.9,0,0,0,.44,1.28,3.73,3.73,0,0,1,.45,1.52,9.91,9.91,0,0,1-3.16-.89,14.06,14.06,0,0,0,.2-4.17l-.67.53c-.61.47-.92.91-.92,1.32a2.93,2.93,0,0,1-1.1,2.64,5.74,5.74,0,0,1-3,.6h-2.14a2,2,0,0,1-2-2.06c0-.86,0-1.81.1-2.85l-1.17-.18a5.4,5.4,0,0,1-1.65,4.05,4.38,4.38,0,0,1-3,1h-1.29a16.74,16.74,0,0,0-.5-4.65,8.23,8.23,0,0,0-1.77-3.05l-1.4,4.14a7.79,7.79,0,0,1,1.93,3.56H735.55c-1.15,0-1.71-2.06-1.71-6.18V476a11.23,11.23,0,0,0-1.9-6.78l-1.9,4.35a7,7,0,0,1,1,1.31,5.79,5.79,0,0,1,.49,2.63v5q0,4.38,1,6.22a3.12,3.12,0,0,0,3,1.68h23.87a5.28,5.28,0,0,0,4.58-2.63c.66,1.75,1.69,2.63,3.08,2.63h2.85a9.5,9.5,0,0,0,2.22-.19,5.87,5.87,0,0,0,2-1,16.57,16.57,0,0,0,5.81,1.17v-6.58a10.61,10.61,0,0,0-.86-4.24Z"/><polygon class="cls-3" points="822.66 494.46 820.07 493.17 818.25 496.54 821.51 498.31 822.91 495.56 825.39 496.95 827.32 493.41 824.13 491.64 822.66 494.46"/><polygon class="cls-3" points="859.59 469.12 855.44 466.96 853.41 470.89 857.5 473.01 859.59 469.12"/><path class="cls-3" d="M857.81,484.6a23.43,23.43,0,0,1-3.6-2.44c-.85-.71-1.26-1.22-1.26-1.53,0-.54.67-1,2-1.25a17.61,17.61,0,0,1,3.77-.36,11.88,11.88,0,0,1,4.2.84l.74-.63a7,7,0,0,0-2.38-2.86,6.25,6.25,0,0,0-3.71-1.27,7.35,7.35,0,0,0-5.05,1.94,5.89,5.89,0,0,0-2.16,4.51,7.31,7.31,0,0,0,1.47,3.92q-1.38.12-2.1.12h-.35v-1.83a10.59,10.59,0,0,0-.85-4.23l-1.51,2a2.11,2.11,0,0,0-.51,1.23A3.76,3.76,0,0,0,847,484a3.65,3.65,0,0,1,.44,1.52,10.25,10.25,0,0,1-3.16-.89,14.81,14.81,0,0,0,.28-2.53,15.42,15.42,0,0,0-.07-1.63l-.68.51c-.6.48-.91.92-.91,1.33a3,3,0,0,1-1.1,2.64,5.79,5.79,0,0,1-3,.6H836.6a2,2,0,0,1-2-2.06c0-.86,0-1.81.1-2.85l-1.17-.17a5.41,5.41,0,0,1-1.65,4,4.41,4.41,0,0,1-3,1h-1.28a17.55,17.55,0,0,0-.5-4.65,8.26,8.26,0,0,0-1.78-3.05L823.92,482a7.67,7.67,0,0,1,1.92,3.56h-18.4q-.12-1.33-.88-5.46l-.95-5.2.52.21a13.24,13.24,0,0,0,1.19-4.08c-1.42-.82-2.19-1.28-2.29-1.36a1.07,1.07,0,0,1-.4-.9,1.91,1.91,0,0,1,.07-.56l-.82-.38a14.13,14.13,0,0,0-1.61,5.22l.87.63q1,5.6,2,11.18a15.77,15.77,0,0,1,.2,2.78,3.53,3.53,0,0,1-1.92,3.09,9.32,9.32,0,0,1-5,1.19q-4.5,0-4.5-3.3,0-2.75,2.53-6.51l-1.08-.73a22.67,22.67,0,0,0-2.78,5.21,13.83,13.83,0,0,0-.65,4.41,5.37,5.37,0,0,0,1.68,4.22,6.75,6.75,0,0,0,4.68,1.49,10.46,10.46,0,0,0,6.38-2.07,6.06,6.06,0,0,0,2.76-4.32h21.44a5.29,5.29,0,0,0,4.59-2.63c.66,1.75,1.69,2.63,3.07,2.63h2.85a9.54,9.54,0,0,0,2.23-.19,6.05,6.05,0,0,0,2-1,14.2,14.2,0,0,0,4.58,1.07v.1h1.57a31.81,31.81,0,0,0,7.63-1.17q1.65-.44,7.38-2.19l2-4.93Z"/><path class="cls-4" d="M399.4,50.84c-5.79-4.31-14.43-6.66-24.53-6.66a65.5,65.5,0,0,0-15.8,2A17.55,17.55,0,0,0,356,38.39a27.6,27.6,0,0,0-9.74-8.61c-11.06-8.25-24.87-5.68-34.1-4l-2.25.41a37.39,37.39,0,0,0-4.78,1.22,16.27,16.27,0,0,0-9.38-12.86,19.09,19.09,0,0,0-12.27-4.1,26.85,26.85,0,0,0-13,3.63,15.76,15.76,0,0,0-1.11-3.36,14.64,14.64,0,0,0-7.35-7.2,15.27,15.27,0,0,0-10-3.57h0a21.5,21.5,0,0,0-11.28,3.5c-12,7.48-12.3,31.86-11.43,45.73a9.48,9.48,0,0,0,3.24,6.55A225.09,225.09,0,0,1,221.53,76a18.08,18.08,0,0,0-14.45-2.16,15.93,15.93,0,0,0-9.94,8.88c-3.58,8.19-2.53,14.37-1,18.11a18.68,18.68,0,0,0,5.49,7.47,21.66,21.66,0,0,0,1.21,6.54,41.83,41.83,0,0,0,12,18.21,39.32,39.32,0,0,0-11.59,5.87,29.35,29.35,0,0,0-8-7.58c-.67-.43-1.36-.8-2.06-1.16-.49-.39-1-.75-1.5-1.08-11.75-7.52-26.74-6.09-38.53-4-15.77,2.86-26.72,7.16-35.45,13.9a22.91,22.91,0,0,0-8.22,12.41c-15.2-3.64-29-1.61-42.06,6.1C44.91,171,36.7,191.72,43,219.21c-13.08,9-26.38,20.88-30.34,37.39a13.54,13.54,0,0,0-5,5.43,15.68,15.68,0,0,0-.81,11.23c-11,11.58-6.23,22.68-3.35,27.29A39.13,39.13,0,0,0,18,314.7,34.57,34.57,0,0,0,21.67,317a61.22,61.22,0,0,0-8.85,18.29c-4.62,14.65-2.43,29.59,6.31,43.51a38.89,38.89,0,0,0-3.66,17,27.31,27.31,0,0,0,0,4.43c.62,7.69,4.65,14.38,11.66,19.37.41.33.82.66,1.26,1a52.39,52.39,0,0,0-11.09,12.47c-3.73,6-5.09,12.84-5.71,19.6a23.13,23.13,0,0,0-4.66,6.12,9.56,9.56,0,0,0,0,8.71c-5.4,15.26,2.94,23.68,7.16,26.8A41.77,41.77,0,0,0,18.23,497c11.86,8.36,27.79,10.91,47.56,10.91,5.42,0,11.12-.19,17.1-.51,8.93-.42,20.32-1.86,29.25-9.43,4.46-3.87,12.63-13.31,7.77-27.44,21.54-7.8,38.78-16.85,53.65-28.09a221.87,221.87,0,0,0,41.36-40.54,31.68,31.68,0,0,0,9.35-13.45c3.09-1.84,6.15-5.13,7.7-11a73.68,73.68,0,0,0,20-37.89,42,42,0,0,0,21.25-.34c20-5.85,31.66-19.6,33.73-39.74,2.33-22.32-8.67-42.15-32.7-59,.29-5.82,2.86-12,7.69-18.36,7-9.33,10.82-19.92,11.66-32.34,1.38-19.24-6.67-35.13-23.94-47.29-.79-1.63-1.67-3.2-2.59-4.73A48.37,48.37,0,0,0,275.5,140a30.55,30.55,0,0,0,5.18.47,21,21,0,0,0,13.91-4.82,19.23,19.23,0,0,0,3-3.19c1.4,4.67,2.72,9.08,4.09,12.65,2.43,6.3,8.34,14.34,16.24,18.54a25.12,25.12,0,0,0,14.76,5.17,22.4,22.4,0,0,0,13.72-4.84,20.49,20.49,0,0,0,8.47-15.48c.67-12.57-10-24.12-14.61-28.5h0a37.67,37.67,0,0,0-7.05-5,91.52,91.52,0,0,0-13-7c6.24-1.68,11.13-5.47,13.69-11a19.26,19.26,0,0,0-1.59-19c7.66,1,18,3.7,27.47,6.12l1.22.31c8.54,2.19,17.18,4,24.93,4,5.77,0,11.05-1,15.42-3.64a19.42,19.42,0,0,0,9-12.38C412.44,63.65,408.26,55.47,399.4,50.84ZM246.83,115.55c.09-.09.16-.2.25-.29,0,.2.07.39.11.59Z"/><path class="cls-4" d="M384.75,97.59c-5.93-4.59-13.83-6.47-19.42-6.68a82.56,82.56,0,0,0-15.62,1c-1.25.17-2.66.37-3.25.38h-.28a9.54,9.54,0,0,0-8.54,6.08,9.69,9.69,0,0,0,2.19,10.36l.26.26c3.36,3.33,11.52,11.4,14.6,14.59a24.77,24.77,0,0,0,6.82,4.89,26.08,26.08,0,0,0,14.64,4.87,20.13,20.13,0,0,0,4-.39,19.64,19.64,0,0,0,13.31-10,17,17,0,0,0,1.66-13.6C393.65,104.54,390.08,100.51,384.75,97.59Z"/><path class="cls-5" d="M121.46,166.4c-.26-7.07.39-13.6,5.63-17.58,8.62-6.66,19.54-10,31.37-12.11,12.23-2.17,23.47-2.6,31.66,2.64,6.76,4.3,9.4,12.41,12.6,19.91a19.16,19.16,0,0,0,4.45-4.5c4.84-8.15,15-12.46,30.64-13.06a28.25,28.25,0,0,0-10.43-11.58c-5.87-3.92-9.71-9.73-12-16.24a10.55,10.55,0,0,1,.36-8.41c-7-2.14-10.09-8.06-6.31-16.73,1.7-3.66,5.95-5.3,11-2.17,2.71,1.63,4.27,4.31,6,6.84,11.67-1,14.54,2.23,15.18,6.52,1.8,11.29-5.37,12.1-14.51,10.27-.17,1.8.18,3.52,2.77,5.14,14.16,9,26.14,19.4,32.22,33.55,14.87,9.72,23.25,22.49,22,40.2a49.62,49.62,0,0,1-9.76,27.28c-7.16,9.47-10.71,19.36-9.36,29.35q35.61,23.1,32.5,52.77c-1.72,16.76-11.31,27-26.91,31.56-9.16,2.66-18.15.42-26.77-3.32-.48,17.1-6.74,32.6-20.58,46-.86,6.1-3.52,8.16-6.94,8.42a21.72,21.72,0,0,1-8.23,14,212.09,212.09,0,0,1-40.21,39.59c-18.34,13.86-39.48,23.15-61.63,30.31,7.69,10.35,7.59,18.77-.3,25.63-6.06,5.13-14.2,6.66-23.44,7.1-24.4,1.28-46,.64-59.2-9-7.11-5.25-5.56-13.13-1.94-20.11-.77-1.08-1.56-2.22-2.34-3.31a15.72,15.72,0,0,1,5.39-5.67c.4-7.06,1.21-13.92,4.6-19.38,3.88-6.44,11.63-12.78,20.92-19.07-11-3.73-18.56-9.33-20.71-18.59-1.73-7.44.15-14.83,4.65-22.35-9-11.82-13-25.23-8.32-39.95C30,326,38.27,313.34,60,309c.45-6.22,3.42-10.66,13-17.1,4.74-3.14,5.78-8.93,8.22-13.45-2.06-1.2-7-.81-11.54,4.09-2,2,0,5.37-.88,7.84-.5,1.57-3.19,1.51-5,1.84-1.2,9.24-5.59,14.85-12.33,17-18.66,6.07-29.49-.68-36.18-11.46-4.61-7.37-1.34-13.72,6.62-19.52-4.8-9.09-2-11.66,2.91-12.45,1.53-16.58,15.21-29,32.84-40.12-7.8-25.56-3.26-44.82,18.34-57.72,13.26-7.87,27.74-8.85,45.54-1.53"/><path class="cls-5" d="M295.69,293l0-1.75-.17-1.7-.24-1.77-.29-1.7-.3-1.71-.46-1.65-.49-1.65-.64-1.66-.64-1.67-.7-1.67-.78-1.6-.9-1.61-1-1.62-1-1.56L287,268.05l-1.19-1.57L284.6,265l-1.32-1.58-1.38-1.51-1.5-1.52-1.52-1.53-1.63-1.53-1.72-1.47-1.78-1.47-1.85-1.48-1.9-1.47L268,250l-2.13-1.48-2.84-1.87-.24-1.77-.11-1,0-.93,0-1-.05-1,.08-1V239l.09-1,.16-1,.08-.95.23-1,.15-1,.21-.92.3-1,.28-1,.28-.91.29-1,.36-1,.42-.93.35-1,.42-.91.48-.93.5-1,.48-.92.49-1,.56-.93.55-.89.62-1,.62-.91.62-.91.63-.91.68-.9.54-.74.56-.8.56-.74.47-.73.48-.8.42-.74.49-.8.42-.8.41-.74.41-.81.35-.79.35-.81.35-.81.35-.79.29-.81.27-.86.31-.82.26-.8.24-.86.28-.87.21-.81.23-.87.14-.86.22-.87.15-.87.14-.88.17-.86.07-.87.16-.93.09-.88.08-.93v-.88l.11-1.62,0-1.57-.05-1.53,0-1.52-.1-1.46-.18-1.42-.23-1.47-.32-1.35-.3-1.35-.39-1.37-.42-1.3-.45-1.3-.52-1.25-.58-1.25-.64-1.25-.65-1.2-.72-1.13-.71-1.2-.78-1.14-.84-1.09-.93-1.09-.9-1.09-1-1-1-1-1-1-1.13-1-1.1-1-1.2-1-1.18-.92-1.25-.93-1.33-.93-1.78-1.24-.84-1.73-.58-1.25-.65-1.25-.63-1.2-.73-1.19-.7-1.2-.77-1.13-.79-1.15-.8-1.14-.84-1.09-.84-1.08-.93-1.09-.91-1-1-1-1-1-1-1-1-1-1.05-1-1.13-1-1-1-1.12-.93-1.13-.92-1.19-.92-1.17-.93-1.18-.92-1.21-.86-1.26-.88-1.18-.86-1.25-.88-1.32-.87-1.25-.86-1.33-.81-.52-.38-.53-.37-.47-.42-.39-.38-.38-.41-.35-.43-.24-.47-.27-.43-.19-.46-.12-.42-.06-.48-.12-.4v-1.3l.19-2.32,3,.59.82.15.79.1.72.08.74.1.74.07.68,0,.66,0,.6,0,.61,0,.54,0,.53-.1.47-.1.47-.16.41-.15.33-.16.34-.16.34-.22.27-.29.28-.28.26-.28.23-.33.2-.4.2-.47.15-.52.07-.59.15-.62,0-.7,0-.76,0-.89-.06-.87-.19-1v-.34l-.12-.35-.06-.3-.06-.29-.12-.3-.14-.3L239,98l-.13-.24-.12-.23-.2-.25-.19-.18-.2-.25-.2-.17-.26-.19-.26-.19-.28-.13-.32-.19-.4-.19-.39-.13-.42-.14-.53-.13-.46-.08-.59-.14-.62-.09-.65,0L232,95l-.73,0-.81,0h-.88l-.93,0-.94.07-2.41.2-1-1.49-.33-.49-.26-.49-.33-.47-.33-.42-.32-.47-.25-.43-.33-.42-.33-.42-.32-.37-.33-.37-.4-.3-.32-.36-.4-.24-.34-.31-.38-.26-.4-.24-.41-.19-.4-.2-.31-.14-.41-.12-.33-.14-.34-.07-.35-.12-.32,0-.26-.06-.28,0h-.26l-.27,0-.26,0-.28,0-.2.06-.26.11-.21,0-.2.12-.26.11-.21.11-.2.1-.15.18-.2.17-.2.16-.21.16-.12.17-.14.23-.21.23-.15.22-.13.29-.15.24-.26.74-.3.75-.21.68-.21.71-.15.67-.15.64-.08.65-.07.63V96l0,.58.13.54.06.47.13.46.11.48.2.47.19.42.21.42.25.36.26.36.26.37.33.36.34.3.32.31.38.31.41.24.46.32.46.25.47.2.47.25.51.2,2.61.86-.91,1.89-.07.17-.07.24-.07.23-.08.16-.06.24-.07.16-.08.25-.06.23,0,.16-.07.24v.23l-.08.23v1.75l.06.23v.24l.05.23v.24l.07.29.06.23,0,.25.08.23,0,.25.08.27.12.26.19.58.19.53.26.61.19.59.24.53.28.6.24.53.26.54.33.54.25.53.32.55.33.47.26.53.33.49.38.54.34.49.31.47.41.48.38.42.33.48.38.42.47.5.39.42.4.43.46.43.46.37.46.41.46.38.46.38.46.36.53.37.53.32.39.3.53.32.4.36.48.32.46.37.45.31.39.36.4.36.45.32.41.37.4.37.39.36.33.37.39.36.32.42.4.36.32.42.33.36.32.43.33.37.32.42.27.42.33.43.26.41.25.43.27.41.25.41.26.43.27.47.26.43.18.47,1.28,2.69-4.22.17-1.32.06-1.35.13-1.35.11-1.26.18-1.21.12-1.22.25-1.2.2-1.15.23-1.07.25-1.07.26-1.07.3-1,.31-1,.3-.94.38-.94.37-.88.37-.81.44-.81.43-.81.43-.74.5-.74.47,4.81,4.45,9.72,2.8.65,8.68-6.37,9.12-16.59,2.45s-21.9,6.56-22.57,6.53-44.23,6-44.64,6.13-15.63-11-15.63-11l-4.73-11.35-.2-.08-1.58-.59-1.53-.59-1.59-.47-1.55-.47-1.45-.41-1.54-.35-1.47-.31-1.46-.27-1.41-.24-1.47-.18-1.39-.18-1.35,0-1.4-.06H97.17l-1.35.06-1.34.11-1.28.19-1.29.19-1.26.29-1.28.25-1.29.35-1.25.36-1.22.42-1.22.41-1.29.55-1.2.52-1.22.54-1.22.65-1.16.65-1.21.64-1.9,1.22-1.83,1.21-1.7,1.27L70,174.34l-1.56,1.34L67,177l-1.3,1.41-1.23,1.41-1.17,1.47-1.1,1.47-1,1.55-.91,1.59-.76,1.61-.7,1.6-.64,1.67-.58,1.73-.49,1.72L56.84,196l-.32,1.88-.24,1.86-.17,1.86,0,2,0,2,.11,2,.14,2.06.23,2.11.29,2.17.42,2.18.42,2.23.57,2.25.62,2.3,1,3.49-2.67,1.71-1.61,1-1.57,1-1.55,1.11-1.51,1-1.47,1.06L48,234.47l-1.42,1.13-1.36,1.1-1.38,1.12-1.28,1.12-1.22,1.12-1.24,1.16-1.22,1.18-1.1,1.18-1.09,1.19-1,1.18-1,1.25-1,1.24-.89,1.19L32.05,251l-.75,1.25-.76,1.31-.64,1.32-.63,1.31-.56,1.31-.48,1.4-.43,1.38-.37,1.38-.3,1.46-.23,1.46-.33,2.72-1.8.33-.4.11-.32,0-.34.1-.29.11-.26.09-.27.12-.21.11-.2.11-.21.17-.13.11-.14.1-.13.18-.15.16-.07.19-.13.22-.08.23-.07.22v.66l0,.34v.41l.06.41.13.47.11.53.2.54.18.59.19.65.32.66.27.58c5.21,3.9,12.85,9.24,18.37,11.86s14.46,3.45,20.61,3.63l.07-.58,1.82-.26.4-.11.41-.05.39,0,.34-.05.34,0,.34-.06.26,0,.27-.12.21,0,.12-.06.07-.05.08-.05v-.12l.06-.18v-.11l.08-.17v-.76l-.06-.24v-.25l0-.22-.08-.24,0-.29-.07-.23-.06-.3v-.28l0-.24v-.59l-.06-.34v-.59l.08-.36V284l.07-.35.08-.29L67,283l.13-.35.21-.34.21-.34.22-.3.26-.28.47-.49.5-.45.46-.45.48-.39.48-.4.47-.38.49-.33.45-.27.49-.33.53-.28.49-.2.47-.22.48-.22.46-.15.48-.16.47-.16.46-.09.48-.1.4-.11.47,0,.48,0,.38,0,.41,0h.46l.41,0,.4.07.39.08.34.07.39.13.34.15.4.12,1.8,1-1,1.83-.21.4-.2.41-.15.46-.2.4-.21.46-.22.45-.14.47-.22.46-.19.45-.2.46-.16.47-.21.45-.21.52-.2.46-.28.46-.22.45-.2.51-.29.47-.27.45-.27.45-.27.47-.29.39-.34.45-.34.45-.34.46-.41.4-.42.38-.39.46-.5.38-.47.34-.46.32-.89.62-.83.6-.79.56-.76.54-.68.56-.68.5-.68.56-.55.51-.61.49-.54.5-.48.51-.46.45-.43.51-.4.45-.42.45-.35.45-.34.51-.28.47-.27.44-.28.4-.21.46-.2.46-.22.46-.14.46-.15.51-.13.47-.15.46-.08.52-.08.48-.06.5-.08.53-.17,1.81-3.3.68-1.88.51-1.75.51-1.69.53-1.61.57-1.62.63-1.48.7-1.42.7-1.36.7-1.3.83-1.2.77-1.23.88-1.09.83-1.08.95-1,.95-1,1-.89,1-.88,1-.89,1-.76,1.08-.76,1.14-.76,1.14-.69,1.14-.62,1.2-.64,1.2-.55,1.2-.57,1.21-.55,1.26L28.77,337l-.51,1.28-.41,1.31-.43,1.28L27,342.2l-.3,1.33-.29,1.33-.3,1.29L26,347.42l-.16,1.33L25.64,350l0,1.3,0,1.27,0,1.23.12,1.3,0,1.22.18,1.23.18,1.18.25,1.23.24,1.18.31,1.24.32,1.19.38,1.17.38,1.19.43,1.12.53,1.19.51,1.13.49,1.19.61,1.14.63,1.14.65,1.08.65,1.13.71,1.08.78,1.15.72,1.07,1.5,1.94-1,1.59-.34.68-.43.7-.32.68-.36.67-.28.7-.35.62-.28.7-.3.69-.2.63-.28.69-.22.69-.2.63-.15.7-.22.65-.14.62-.15.69-.08.65-.16.63-.08.7v.64l-.07.65v1.33l0,.65.06.64.06.64.05.65,0,.64.15.66.11.64.13.64.24.78.18.82.26.71.33.78.32.71.31.64.39.72.39.66.39.61.44.66.46.6.54.55.53.61.5.54.61.55.6.55.65.5.66.54.66.5.66.44.73.5.79.43.73.45.86.44.79.44.87.38.84.4.88.38.93.38.93.33,1,.39,4.31,1.52-3.65,2.43-.81.61-.81.55-.9.6-.82.56-.74.6-.81.56-.82.6-.76.56-.73.62-.74.54-.69.61-.74.55-.69.58-.68.6-.67.55-.63.64-.67.53-.62.58-.54.61-.62.56-.55.57-.55.55-.53.63-.48.56-.49.56-.47.57-.43.57-.41.56-.4.57-.35.57-.41.57-.28.51-.28.46-.22.51-.27.52-.21.51-.21.52-.21.52-.22.53-.21.56-.2.53-.14.57-.15.57-.14.58-.15.58-.14.58-.15.57-.08.6-.15.62-.07.58-.09.64-.14.58-.09.64-.08.65-.07.63,0,.58-.07.64-.09.64v.64l-.09.65-.07.69v.64l-.1,1.4-1.09.77-.41.28-.4.33-.33.29-.34.26-.36.35-.33.27-.34.34-.27.28-.29.35-.26.33-.21.28-.21.35-.21.21.19.25.14.19.13.24.14.17.44.66.14.18.12.25.2.17.13.24.65,1c19.77,2.33,42.71,2.9,79.67-4.41l4.31-1.45,2.1-.68,2-.68,2-.74,2-.73,2.09-.73,2-.74,2-.8,2-.78,2-.8,2-.8,1.95-.84,2-.86,2-.86,1.9-.92,2-.91,1.88-.92,1.89-.92,1.9-1,1.89-1,1.9-1,1.82-1,1.82-1,1.84-1.1,1.75-1.1,1.83-1.14,1.77-1.1,1.77-1.22,1.76-1.15L163,436l1.7-1.27,1.7-1.27,1.29-.94,1.28-1,1.23-1,1.28-1,1.23-1,1.3-1,1.23-1.06,1.29-1.06,1.23-1.06,1.22-1.11,1.29-1.06,1.23-1.12,1.22-1.17,1.23-1.11,1.23-1.19,1.23-1.24,1.29-1.17,1.22-1.23,1.24-1.24,1.23-1.29,1.23-1.3,1.24-1.34,1.22-1.29,1.31-1.42,1.22-1.35,1.23-1.41,1.24-1.47,1.22-1.46,1.25-1.47,1.3-1.52,1.24-1.59,1.37-1.7.54-.45.34-.33.34-.34.41-.33.35-.34.34-.33.26-.41.36-.33.34-.32.27-.41.27-.35.34-.39.21-.39.28-.34.26-.39.29-.41.21-.46.21-.39.2-.41.22-.45.2-.4.22-.46.12-.41.23-.46.13-.45.14-.47.16-.52.13-.46.08-.52.15-.47.07-.52.3-1.85,1.82-.17h.19l.22,0,.26-.06.2-.05.2,0,.2-.13.14-.05.21-.1.19-.06.13-.1.21-.11.14-.17.2-.11.15-.17.2-.17.14-.17.14-.23.2-.23.13-.22.15-.29.13-.28.15-.29.13-.34.14-.36.15-.39.07-.34.14-.47.09-.4.14-.51.07-.48.14-1.05,1.65-1.68,1.23-1.24,1.17-1.23,1.09-1.3,1.09-1.24,1-1.3,1-1.31,1-1.3.91-1.38.89-1.29.83-1.37.77-1.32.75-1.35.7-1.39.68-1.42.65-1.38.55-1.43.57-1.38.57-1.45.49-1.44.44-1.44.36-1.5.42-1.45.31-1.5.29-1.44.29-1.52.24-1.51.16-1.56.17-1.52.16-1.51.09-1.56.17-4.21,3.5,1.48.81.32.79.33.79.33.8.26.8.27.8.27.8.26.79.26.74.22.79.21.81.2.79.21.81.15.81.15.8.15.71.09.8.09.81.08.82,0,.72,0,.8,0,.81,0,.8,0,.73-.08.81-.09.81-.09.74-.08.79-.14.83-.21.8-.14.74-.25,1.41-.42,1.35-.47,1.33-.46,1.23-.54,1.28-.54,1.22-.58,1.16-.6,1.14-.66,1.08-.72,1-.71,1-.72,1-.78.88-.77,1-.9.81-.85.81-.89.83-1,.76-1,.7-1,.68-1,.62-1.09.64-1.14.55-1.15.49-1.2.49-1.27.43-1.26.42-1.27.3-1.38.37-1.4.22-1.39.22-1.45.17-1.51.17-1.75.1-1.81Z"/><path class="cls-5" d="M134.83,236.15s5.13,2.54,6.37,4.21,7.88-1.44,7.76-5.1-2.47-6.81-3.9-8.53-7.68-4.23-8.11-3.88a34.14,34.14,0,0,0-2.26,5.94c0,.42.14,7.36.14,7.36"/><path class="cls-5" d="M222.67,159.83c-6.7,0-12.8.18-18.29.49l.34-.27.34-.28.34-.29.34-.27.33-.29.33-.27.28-.35L207,158l.27-.33.34-.28.27-.35.28-.4.28-.33.26-.34.22-.4.42-.68.47-.69.48-.67.54-.63.54-.57.56-.61.62-.56.61-.55.67-.51.68-.49.76-.5.74-.5.81-.43.81-.43.81-.44.88-.37.94-.37.94-.38,1-.3,1-.31,1.07-.31,1.07-.25,1.08-.25,1.14-.23,1.2-.2,1.22-.25,1.21-.12,1.26-.18,1.35-.11,1.35-.13,1.32-.06,4.22-.17-1.28-2.69-.18-.47-.26-.43-.27-.47-.25-.43-.26-.41-.27-.41-.25-.43-.26-.41-.33-.43-.27-.42-.32-.42-.33-.37-.32-.43-.33-.36-.32-.42-.4-.36-.32-.42-.39-.36-.33-.37-.39-.36-.4-.38-.41-.36-.45-.32-.4-.36-.39-.36-.45-.31-.46-.37-.48-.32-.4-.36L229,129l-.39-.3-.53-.32-.53-.37-.46-.36-.46-.38-.46-.38-.46-.41-.46-.37-.46-.43-.4-.43-.39-.42-.47-.5-.38-.42-.33-.48-.38-.42-.41-.48-.31-.47-.34-.49-.38-.54-.33-.49-.26-.53-.33-.47-.32-.55-.25-.53-.33-.54-.26-.54-.24-.53-.28-.6-.24-.53-.19-.59-.27-.61-.18-.53-.19-.58-.12-.26-.08-.27,0-.25-.08-.23,0-.25-.06-.23-.07-.29v-.24l-.05-.23v-.24l-.06-.23V109l.08-.23v-.23l.07-.24,0-.17.06-.22.08-.25.07-.16.06-.24.08-.16.07-.23.07-.24.07-.17.91-1.9-2.61-.85-.51-.2-.47-.25-.47-.2-.46-.25-.46-.32-.4-.24-.39-.31-.32-.31-.34-.3-.33-.37-.26-.36-.26-.36-.25-.36-.21-.42-.19-.42-.2-.47-.11-.48-.13-.46-.06-.47-.13-.54,0-.58,0-.52v-.59l.07-.63.08-.65.15-.64.15-.67.21-.71.21-.68.3-.75.26-.74.15-.24.13-.29.15-.22.21-.23.14-.23.12-.17.21-.16.2-.16.2-.17.15-.18.2-.1.21-.11.26-.11.2-.12.21,0,.26-.11.2-.06.28,0,.26,0,.27,0h.26l.28,0,.26.06.32,0,.35.12.34.07.33.14.41.12.31.14.4.2.41.19.4.24.38.26.34.31.4.24.32.36.4.3.33.37.32.37.33.42.33.42.25.43.32.47.33.42.33.47.26.49.33.49,1,1.49,2.41-.2.94-.07.93,0h.88l.81,0,.73,0,.74.09.65,0,.62.09.59.14.46.08.53.13.42.14.39.13.4.19.33.19.27.13.26.19.26.19.2.17.2.25.19.18.2.25.12.23L239,98l.13.24.14.3.12.3.06.29.06.29.12.36v.34l.19,1,.06.87,0,.89,0,.76,0,.7-.15.62-.07.59-.15.52-.2.47-.2.4-.23.33-.26.28-.28.28-.27.29-.34.22-.34.16-.33.16-.41.15-.47.16-.47.1-.53.1-.54,0-.61,0-.6,0-.66,0-.68,0-.74-.07-.74-.1-.72-.08-.79-.1-.82-.15-3-.59-.18,2.32v.42l0,.4v.48l.12.4.06.48.12.42.19.46.27.43.24.47.35.43.38.41.39.38.47.42.53.37.52.38,1.33.81,1.25.86,1.32.87,1.25.88,1.18.86,1.26.88,1.21.86,1.18.92,1.17.93,1.19.92,1.13.92,1.12.93,1,1,1.13,1,1.05,1,1,1,1,1,1,1,1,1,.91,1,.93,1.09.84,1.08.84,1.09.8,1.14.79,1.15.77,1.13.7,1.2.73,1.19.63,1.2.65,1.25.58,1.25.84,1.73,1.78,1.24,1.33.93,1.25.93L266,154l1.2,1,1.1,1,1.13,1,1,1,1,1,1,1,.91,1.09.92,1.09.84,1.09.78,1.14.71,1.2.72,1.13.64,1.2.65,1.25.57,1.25.53,1.25.44,1.3.43,1.3.39,1.37.3,1.36.32,1.34.23,1.47.18,1.42.1,1.46,0,1.52.05,1.53,0,1.57-.11,1.62v.88l-.08.93-.09.88-.16.93-.07.87-.17.86-.14.88-.15.87-.22.87-.14.86-.23.87-.21.81-.28.87-.24.86-.26.8-.31.82-.27.86-.29.81-.35.79-.35.81-.35.81-.35.79-.41.81-.41.74-.42.8-.49.8-.42.74-.48.8-.47.73-.56.74-.56.8-.55.74-.67.9-.63.91-.62.91L270,219l-.62,1-.55.9-.56.93-.49,1-.48.92-.5,1-.48.93-.42.91-.35,1-.42.93-.36,1-.29,1-.28.91-.28,1-.3,1-.21.91-.15,1-.23,1-.08.95-.16,1-.08,1,0,.93-.08,1,.05,1,0,1,0,.93.11,1,.24,1.77c-5.44,1.4-10.87,1.66-16.24-.38-7.2-2.69-11.91-8.48-14.81-16.66-8.74,11.62-18.86,19-30,23.25-9.06,10.55-24.75,9-32.42,1.43-13.38-2-22.82-7.59-29.9-15.48q4.58-7.53.23-11.72a24.44,24.44,0,0,1-3.27,9.73c-3-.24-5.71.81-8.41,2.06-6.14,2.89-10.63,7.15-12.75,12.5-7.73,18.95-16.66,27.35-29.07,27.66a51.72,51.72,0,0,0-3.73-20.82c-2.67-6.83-7.38-12.45-12.85-17.94-4.17-4.2-7-9.15-10-13.89l-1-3.49-.63-2.3-.55-2.25-.43-2.23-.42-2.18-.29-2.17-.23-2.11-.14-2.06-.11-2,0-2,0-2,.17-1.86.24-1.86.32-1.88.35-1.78.5-1.72.57-1.73.64-1.67.7-1.6.76-1.61.91-1.59,1-1.55,1.1-1.47,1.17-1.47,1.23-1.41L67,177l1.43-1.35L70,174.34l1.63-1.27,1.7-1.27,1.83-1.21,1.9-1.22,1.21-.64,1.16-.65,1.22-.65,1.22-.54,1.2-.52,1.29-.55,1.22-.41,1.22-.42,1.25-.36,1.29-.35,1.28-.25,1.26-.29,1.29-.19,1.28-.19,1.34-.11,1.35-.06h2.66l1.4.06,1.35,0,1.39.18,1.47.18,1.41.24,1.46.27,1.47.31,1.54.35,1.45.41,1.55.47,1.59.47,1.53.59,1.58.59,4.6,1.82c5.57,2.57,10.82,7.86,16.06,13.91a125.72,125.72,0,0,0,49.68-11.29c5.42-.12,13.83,1.16,23.26,2.29,8.8.42,13.83-2.82,16.21-8.62-.46-3.59-2.49-5.48-6.16-5.63"/><path class="cls-5" d="M194.36,169.48c6.08-3.66,14.07-7.48,24.77-7,10.23.46,8.54,8.22-2,10.08-9.61,1.64-17.45-1.25-22.76-3.1"/><path class="cls-5" d="M170.74,138.56c-.27,0-.54,0-.82,0a102.14,102.14,0,0,0-19.59,3l-1,.25-1.38.4-1.55.49a3.94,3.94,0,0,0-.49.14c-.93.31-1.89.62-2.9,1-1.93.74-3.86,1.56-5.75,2.48l-.5.25c-.45.22-.91.44-1.33.67-.75.38-1.49.79-2.2,1.18a1.49,1.49,0,0,1-.27.15l-1.43.84c-.6.36-1.18.71-1.76,1.09-4.13,2.69-4.6,9.67-4.5,17.51a36.78,36.78,0,0,1,10.52,10.58c.75.1,1.51.18,2.3.26,1.41.14,2.81.26,4.25.36,1,0,1.92.07,2.86.05,1.48,0,3,0,4.51-.11.26,0,.53,0,.81-.06.63,0,1.27-.1,1.91-.17a67.35,67.35,0,0,0,11-2.2c.16,0,.33-.09.48-.15,1.7-.48,3.44-1,5.26-1.69,1.56-.58,3.18-1.23,4.79-2,9.72-4.15,19.16-8,28.48-11.8-5.85-12.51-12.4-23.64-31.75-22.56m18.94,23-.34,0c-1.08.07-2.14.15-3.2.26-.28,0-.56,0-.85.08-.81.08-1.62.17-2.42.28l-1.39.18-1.58.25c-.68.1-1.32.22-2,.33l-.53.1a84.31,84.31,0,0,0-14.46,4.05c-.64.24-1.24.5-1.86.75l-.93.37c-.77.32-1.54.68-2.29,1-.14.08-.29.12-.41.19-.76.35-1.53.74-2.29,1.11l-.45.24c-.67.35-1.37.71-2,1.07l-1,.55-1.37.79c-1.78,1-3.51,2.14-5.2,3.28l.15-.11a49.08,49.08,0,0,1,11-9.28l.61-.35.78-.46c.29-.14.57-.29.85-.45l.59-.3a9.2,9.2,0,0,1,.89-.44l.58-.3c.3-.12.58-.27.88-.39s.45-.2.7-.29l.78-.33,1-.37.53-.18a40.33,40.33,0,0,1,5-1.48c.83-.2,1.69-.37,2.54-.53l.31-.06c.71-.12,1.44-.23,2.17-.33l1.05-.12c.61-.07,1.25-.13,1.88-.18l1.28-.09c.41,0,.85,0,1.29,0s1.11,0,1.68,0l1.62,0c.31,0,.62,0,.95,0,.79,0,1.62.09,2.44.16l.69.05c.89.06,1.8.16,2.71.28l.41,0c1,.13,2,.27,3,.44-1.3,0-2.56.09-3.83.17m-45.36,1.56h0c-.09-.58-.21-1.16-.34-1.72,0-.09,0-.17-.05-.27-.1-.44-.24-.86-.37-1.29a28.09,28.09,0,0,0-1.18-3.09A5.22,5.22,0,0,0,142,156a1.28,1.28,0,0,0-.16-.36,27.74,27.74,0,0,0-1.89-3.26,21.66,21.66,0,0,1,2.91,2.63,15,15,0,0,1,1,1.17,11.6,11.6,0,0,1,1.28,2.34v0c.09.24.17.5.25.75a1.2,1.2,0,0,0,.09.29,2.79,2.79,0,0,0,.07.4c0,.17.07.34.1.52a1.26,1.26,0,0,0,0,.27,10.67,10.67,0,0,1,0,2.64c0,.08,0,.17,0,.25a15.75,15.75,0,0,1-1,3.44,20.94,20.94,0,0,0-.22-4"/><path class="cls-5" d="M121.63,267.09c9.41,1,18.9,1.94,28.34,2.91,3.51,4.41,4.46,10.52,3.5,18.48a54,54,0,0,1-7.3,14.31c-8.94-1.19-17.15-3.1-26.09-4.28,8.43.4,16,1.54,24.46,1.93,6.84-7.14,9.29-16.14,5.29-27.81l-28.2-5.54"/><path class="cls-5" d="M156.42,277.62c-7.56.63-14.69,1.91-19.77,5.56-7.76-7.38-15.83-12.09-24.37-13.09q10.64-.6,24.34,10.81c6.84-3.28,13.39-3.66,19.8-3.28"/><path class="cls-5" d="M114.57,262.25c6.71,12.66,6.74,25,.74,37.18a65.87,65.87,0,0,0-.74-37.18"/><path class="cls-5" d="M137.28,278c1.67.07,3.08-.57,3.11-1.32s-1.38-1.52-3-1.6-3.09.52-3.11,1.34,1.3,1.52,3.05,1.58"/><path class="cls-5" d="M167.93,353.66c7.6-2.43,14.18-7.07,14.12-24a67.91,67.91,0,0,0-1-18.21c1.37,1.05,2.76,2.1,4.15,3.15-.5,8.51-1.07,17.07-2.3,25.37-4.27,11.5-9.62,13-15,13.69"/><path class="cls-5" d="M208.33,266.54,228,265.6c4.92,4.45,7.69,10.81,8.26,19.12l-1.5,1.18c.27-7-1.74-13.16-7.2-18.06Z"/><path class="cls-5" d="M246.11,265.21c-6.73,4.52-10.62,11.9-12.81,20.92.43-11.26,3.61-19.47,12.81-20.92"/><path class="cls-5" d="M256.74,272.07c-12.09-.55-18.18,4.75-20.8,13.29,1.83-11.78,8.1-17.25,20.8-13.29"/><polygon class="cls-5" points="219.6 244.45 221.99 255.7 208.04 253.21 218.96 253.53 219.6 244.45"/><path class="cls-5" d="M205.23,267.53l2.71,11.73,2.41,0s-2.38-8.85-5.12-11.76"/><path class="cls-5" d="M224.59,276.48a54.29,54.29,0,0,0-24-3.42,27.39,27.39,0,0,1,24,3.42"/><path class="cls-5" d="M226.44,277.62a16.16,16.16,0,0,1,9.33-4.59c-4.68-.49-7.8,1.09-9.33,4.59"/><path class="cls-5" d="M225.5,274.07c1.28.05,2.36-.37,2.37-1s-1.05-1.15-2.32-1.21-2.35.44-2.37,1,1,1.16,2.32,1.2"/><polygon class="cls-5" points="204.82 250.91 201.22 263.33 191.4 258.19 199.93 261.06 204.82 250.91"/><polygon class="cls-5" points="188.73 258.96 188.98 265.81 182.39 264.43 186.69 263.74 188.73 258.96"/><path class="cls-5" d="M165.17,255.2A207.84,207.84,0,0,1,178,280l-2.32,1.5a170.08,170.08,0,0,0-10.46-26.31"/><path class="cls-5" d="M144.42,242.09c.68,6,1.29,12,3.45,18a52.15,52.15,0,0,0,15.59-2.93l-.12-1.57c-5.16,1.19-10.13,2.32-14.54,2Z"/><polygon class="cls-5" points="159.43 258 158.82 265.4 168.13 265.55 161.27 263.16 159.43 258"/><path class="cls-5" d="M173.15,271.24a73.21,73.21,0,0,1,10-11.74l-2.26-1a62.42,62.42,0,0,0-7.75,12.71"/><path class="cls-5" d="M61.62,292.39v.4l-.15.76-.15.82-.14.75-.21.69-.22.69-.22.7-.21.69-.22.63-.27.63-.29.58-.28.56-.34.58-.28.51-.34.51-.33.45-.36.52-.42.45-.41.39-.33.39-.41.4-.48.39-.4.33-.47.32-.41.33-.49.28-.54.27-.47.29-.54.25-.53.22-.54.22-.54.15-1.61.51-1.62.46-1.62.35-1.48.34-1.48.24-1.41.17-1.34.07-1.33.06H37.47l-1.28-.05L35,309.52l-1.14-.15-1.13-.23-1.07-.28-1.07-.33-1-.33-1-.4-.93-.5-.92-.45-.92-.56-.88-.56-.85-.62-.78-.67-.87-.69-.72-.78-.8-.74-.7-.78-.74-.84-.64-.91-.65-.91-.64-.89-.59-1-.39-.67-.32-.59-.26-.59-.27-.6-.18-.53-.19-.59-.12-.59-.05-.53-.06-.53-.07-.58.09-.52v-.53l.09-.53.13-.51.16-.58.2-.52.22-.52.21-.51.27-.51.35-.52.34-.5.43-.58.39-.5.42-.52.55-.56.47-.5.55-.56.6-.52.63-.55.61-.5.68-.55.88-.67c5.8,5,13.57,11.13,18.17,11.79,5.15.79,14.29,1.1,20.12,1.22"/><path class="cls-5" d="M52.24,307h0l-.53.22-.54.22-.55.15-1.6.51-1.61.46-1.63.35-1.48.34-1.48.24-1.41.16-1.34.08-1.33.06H37.47l-1.28-.05L35,309.52l-1.14-.15-1.13-.23-1.07-.28-1.07-.33-1-.33-1-.4-.93-.5-.92-.45-.46-.31c1.87-.09,2.8-3,5.83-1.21,3.78,2.3,5.94,5.37,9.71,3.95s1.74-4,6.07-2.56a9.59,9.59,0,0,0,4.34.23m-29.39-2.88-.4-.32-.72-.78-.8-.74-.7-.78-.74-.84-.64-.91-.65-.91-.64-.89-.59-1-.4-.67-.31-.59-.26-.59-.27-.6-.18-.53-.19-.59-.12-.59-.05-.53-.06-.53v-.29c1.48-.18,3.09-.05,3.65,1.37,1,2.73-.36,5.31,1.81,6.56,1.6.88,1.29,2.85,2.26,4.71"/><path class="cls-5" d="M52.24,307h0l-.53.22-.54.22-.55.15-1.6.51-1.61.46-1.63.35-1.48.34-1.48.24-1.41.16-1.34.08-1.33.06H37.47l-1.28-.05L35,309.52l-1.14-.15-1.13-.23-1.07-.28-1.07-.33-1-.33-1-.4-.93-.5-.92-.45-.46-.31c1.87-.09,2.8-3,5.83-1.21,3.78,2.3,5.94,5.37,9.71,3.95s1.74-4,6.07-2.56a9.59,9.59,0,0,0,4.34.23m-29.39-2.88-.4-.32-.72-.78-.8-.74-.7-.78-.74-.84-.64-.91-.65-.91-.64-.89-.59-1-.4-.67-.31-.59-.26-.59-.27-.6-.18-.53-.19-.59-.12-.59-.05-.53-.06-.53v-.29c1.48-.18,3.09-.05,3.65,1.37,1,2.73-.36,5.31,1.81,6.56,1.6.88,1.29,2.85,2.26,4.71"/><path class="cls-5" d="M182,359.78c7.6-2.43,14.26-7.07,14.12-24,.73-6.34,0-12.26-.9-18.2,1.38,1.05,2.69,2,4.08,3.07A244.4,244.4,0,0,1,197,346c-4.24,11.57-9.55,13-15,13.75"/><path class="cls-5" d="M242.91,277.89c14.34,8.86,18.61,19.9,12.59,33.2-5.64,11.63-11.51,14-17.49,14.48-4.54-.31-7.42-3.34-9.54-7.7-9.3,5.94-14.65,3-19.46-1.26.09,6.14-3.4,9.92-14.48,8.53-3.27-1.12-6.19-2.41-7-4.27-4.19-1.5-5.45-4.59-5.33-8.44-4.38-1-7-3.57-8-7.74-4.76.62-5.87-4.33-5.25-11.78,4.31-18.45,17.34-24.12,36.35-21,9.74,1.46,16.82,5.66,23.15,10.65,4.85-1.56,9.63-3.11,14.49-4.66"/><path class="cls-5" d="M243.37,281.81c18.29,12.42,11.92,33.54-2.58,39.83-3.34-1.65-6.64-3.24-10-4.89a14.69,14.69,0,0,1,2.59-5.92c-.34-.25-.66-.42-1.06-.68-5.7,7.43-8.79,7.64-12,8-7.52.92-10.8-2.84-12-8.68-3.31,4.43-6.14,5.3-9,5.24-7.35-.23-7.75-7.13-6.35-17.3-2.14,3.53-4,7.43-3.27,13.59-5.24.95-8.55-1.17-10.33-5.79-1.47-3.86-.51-8.38,4.68-14-4.59,2.62-7.75,6-7.63,10.9-3.57.74-5.19-1.31-4.84-6.21,1.5-11.15,8.78-17.57,18.64-21.9,21.57-4.32,33.48,6,43.39,19.41-1.34-2.92-2.41-5.89-2.3-8.74a18.68,18.68,0,0,1,12.11-2.89"/><path class="cls-5" d="M185.47,313.08a36,36,0,0,0,19.09,2.19c1.1,5.47-1.44,8.06-6.33,8.56-8.41-1.22-12.15-5.11-12.76-10.75"/><path class="cls-5" d="M80.17,176.33c26.2-8,46.12-.33,48.7,21.21l-2.12-.09q-1.6-15-17.76-8.66c1.62-2.1,3.82-4,10-4.86-7-10-22-9.82-38.8-7.6"/><path class="cls-5" d="M89.85,291.32l7.34.07s-2.49,11.22-3.86,16a76.47,76.47,0,0,1,38.42,3.26c15,5.22,24.62,17.36,19.71,33.16a3.84,3.84,0,0,0-.14.4c4.48,3.33,33.41,23.55,69.71,29.06v.25l-.14.5-.09.41-.14.47-.07.34-.15.39-.14.36-.13.34-.15.29-.13.28-.15.29-.13.22-.2.23-.14.23-.14.17-.2.17-.15.17-.2.11-.14.17-.21.11-.13.1-.19.06-.21.1-.14.05-.2.13-.2,0-.2.05-.26.05-.22,0h-.19l-1.82.17-.3,1.85-.07.52-.15.47-.08.52-.13.46c-5.09-.38-13.83-1.8-26.58-6.45-22.78,18.1-35.35,17.77-45.92,13.6,12.4,2.38,26,.13,42.87-14.77-2.81-1.11-5.79-2.34-8.92-3.76a85.36,85.36,0,0,1-28.2,15c9.67-4.4,18.6-9.46,24.7-16.58a286,286,0,0,1-25.24-13.52c-6.91,15.19-15.34,24.71-22.63,34.59-.39-1-.83-2.08-1.28-3.09,9.12-11.78,19.76-24.54,25.65-45.39,4-14-3.8-23.81-15.91-29-12.93-5.5-27.45-5.8-42.82-3.39l.06-2.55c.53-.1,1.07-.19,1.6-.3L94.07,294l-3.67-.79s-.29.8-.64,2.07ZM55.29,319.05a271.11,271.11,0,0,1,25.6-9l6-17.05-3-1.81,5.9.12-.09,3.91c-1.21,3.46-3.42,10.37-4.63,13.71,1.49-.28,2.9-.64,4.39-.92l-.06,2.55a251.94,251.94,0,0,0-34.17,8.48"/><path class="cls-5" d="M55.29,319.05a271.11,271.11,0,0,1,25.6-9l6-17.05-3-1.81,13.24.19s-2.49,11.22-3.86,16a76.47,76.47,0,0,1,38.42,3.26c15,5.22,24.62,17.36,19.72,33.16a4,4,0,0,0-.15.4c4.48,3.33,33.41,23.55,69.71,29.06v.25l-.14.5-.09.41-.14.47-.07.34-.14.39-.15.36-.14.34-.14.29-.13.28-.15.29-.13.22-.2.23-.14.23-.13.17-.21.17-.16.17-.19.11-.14.17-.21.11-.13.1-.2.06-.2.1-.14.05-.2.13-.2,0-.2.05-.26.05-.22,0h-.19l-1.82.17-.3,1.85-.07.52-.15.47-.08.52-.13.46c-5.09-.38-13.83-1.8-26.58-6.45-22.78,18.1-35.35,17.77-45.92,13.6,12.4,2.38,26,.13,42.87-14.77-2.81-1.11-5.79-2.34-8.92-3.76a85.42,85.42,0,0,1-28.19,15c9.66-4.4,18.59-9.46,24.69-16.58a286,286,0,0,1-25.24-13.52c-6.92,15.19-15.34,24.71-22.62,34.59-.4-1-.84-2.08-1.29-3.09,9.12-11.78,19.76-24.54,25.65-45.39,4-14-3.8-23.81-15.91-29-22.16-9.43-49.18-3.53-77,5.09m29.84-10.11c2-.44,4-.89,6-1.22L94.07,294l-3.67-.79s-3.7,11.22-5.27,15.78"/><path class="cls-5" d="M193.8,396.3c-15.92,16.35-42.27,22.52-80.19,17.41l2.9-1.81c34.24,1.87,61.1-2.35,77.29-15.6"/><path class="cls-5" d="M210.38,390.08l-.06.05-.27.35-.27.41-.35.32-.35.33-.26.41-.34.33-.36.34-.4.33-.34.34-.34.33-.54.45-1.25,1.48c-7.17.7-13,.86-9.37.6s9.63-3.22,14.5-6.07"/><path class="cls-5" d="M123.72,394.73c6,31.07-92.57,39.31-95.19,7-2.74-34.29,88-44.23,95.19-7"/><path class="cls-5" d="M104,465.37l1.18,1.55.59,1,.58.9.59.89.45.83.45.9.39.84.39.83.3.77.26.83.19.76.19.78.12.75.11.77.06.71v1.39l-.1.71-.07.69-.14.69-.23.63-.21.64-.28.69-.28.63-.42.63-.33.62-.49.63-.48.62-.54.62-.56.56-.62.61-.67.64-.55.43-.47.39-.53.38-.62.4-.54.38-.61.32-.55.33-.61.33-.61.27-.67.32-.6.26-.68.21-.61.26-.67.22-.68.2-.73.2-.68.2-.74.15-.66.15-.75.14-.75.15-.78.15-.76.14-.79.09-.74.08-.8.08-.82.09-.79.08-.9.08L84,496l-.81.08h-.87L80,496.2l-2.27.1-2.22.08-2.21.08-2.14,0-2.21.09-2.14,0-2.08,0H62.66l-2.08,0-2.07-.07-1.94-.09-2-.14-1.94-.13-1.87-.21-1.88-.18L47,495.44l-1.8-.23-1.73-.31-1.75-.37-1.65-.36-1.67-.43-1.59-.41-1.53-.52-1.53-.47-1.47-.59-1.38-.58-1.4-.69-1.32-.65-1.27-.75-1.25-.81-1.13-.81L24,487l-.53-.44-.46-.41-.4-.49-.39-.48-.32-.49-.32-.48-.26-.47-.27-.48-.2-.54-.17-.52-.13-.54-.12-.53-.06-.58,0-.6v-1.16l0-.58.08-.59.08-.63.06-.58.17-.65.15-.63.2-.62.15-.65.21-.63.28-.62.22-.64.27-.63.3-.64.33-.63.28-.57c26.24,4.23,53.07,4,80.93-4.16"/><path class="cls-5" d="M40,358.5a49.39,49.39,0,0,0-.83,18.42c-4.51-6.32-3.71-12.42.83-18.42"/><path class="cls-5" d="M49.78,364.74a29.63,29.63,0,0,0-9.68,11.81l-1.45-1.05c2.94-6.14,6.67-9.54,11.13-10.76"/><path class="cls-5" d="M240.45,143.39c1.89,19.42-7.33,29.2-19.38,36.53-16.2,9.85-28.07,11.49-38.51,10.52,12.94-.64,26.5-2.6,43-15.42,11.6-9,15.37-19.82,13.18-31.58Z"/><path class="cls-5" d="M263.72,151.58c2.07,13,0,25-7.2,36.09C244.16,206.79,224,217,199,222.94c-8.08,1.94-16.13,3.84-24.12,1.7-5.47-1.44-9.21-4.93-12.5-8.27,11.85,10.46,29.07,9.3,49,2.35,16.44-5.65,29.58-13.92,39.06-25.45C262.1,179,265,165,261.79,150.63Z"/><path class="cls-5" d="M226.75,238.2c5.08-9.61,8.61-19.39,8.33-29.63l1.62-1.09c.47,10.76-3.34,21-9.95,30.72"/><path class="cls-5" d="M161.88,207.87c-4.21-.34-8.42-.81-11.32.53-4.66,2.21-3.32,5.89-2.52,9.13.65-2.54,1.82-4.59,4.33-5.48,9,14.85,19.32,28.35,42.16,26.94,11-5.45,16.2-13,20.55-20.88-12.45,4.11-24.41,6.6-35.26,6.33-10.48-1.19-18.88-6.22-26.1-13.34,1.44-1.92,4.67-2.67,8.16-3.23"/><path class="cls-5" d="M212.94,218.78c-11.72,3.72-22.87,5.95-33.12,5.66-9.74-1.1-17.75-5.51-24.58-11.87a42.1,42.1,0,0,0,14.42,18.05c3.39-1.61,7.56-2.67,14-2.47a27.17,27.17,0,0,1,16.69,5.95c4.61-3.27,8.8-8.53,12.55-15.32"/><path class="cls-5" d="M170.2,231a52,52,0,0,0,13,6.08,19.4,19.4,0,0,0,16.12-2.27c-9.17-7-18.93-7.78-29.11-3.81"/><path class="cls-5" d="M160.42,176.4c6.89.27,13.26,7.19,14.22,15.41s-3.9,14.68-10.72,14.4-13.18-7.2-14.16-15.41,3.9-14.67,10.66-14.4"/><path class="cls-5" d="M160.55,177.28c6.48.26,12.44,6.76,13.3,14.5s-3.63,13.76-10,13.48-12.39-6.74-13.25-14.44,3.62-13.8,10-13.54"/><path class="cls-5" d="M158.89,186.67c4,.17,7.73,4.23,8.32,9s-2.25,8.56-6.32,8.39-7.68-4.16-8.26-9,2.3-8.62,6.26-8.46"/><path class="cls-5" d="M158.67,194.32a2.48,2.48,0,0,1,2.15,2.35,1.7,1.7,0,0,1-1.64,2.16,2.55,2.55,0,0,1-2.1-2.3c-.1-1.3.57-2.26,1.59-2.21"/><path class="cls-5" d="M196,172.23c6,.25,11.69,5.62,13.63,12.48A67.16,67.16,0,0,1,186,190.22a21.55,21.55,0,0,1-.79-3.58c-.93-8.21,3.89-14.69,10.77-14.41"/><path class="cls-5" d="M196.09,173.18c5.68.23,11.08,5.36,12.83,11.85a69.22,69.22,0,0,1-22.13,5.17,20.15,20.15,0,0,1-.79-3.54c-.87-7.68,3.6-13.75,10.09-13.48"/><path class="cls-5" d="M194.44,182.51c2.79.12,5.58,2.22,7.05,5.14a72.65,72.65,0,0,1-13.44,2.43c-.17-4.39,2.57-7.72,6.39-7.57"/><path class="cls-5" d="M213.68,174a32.18,32.18,0,0,1,5.08,6.56l-1.55,1.11a21.05,21.05,0,0,0-5.6-7.76Z"/><path class="cls-5" d="M227.45,168.39s3.8,1.09,3.83,2.14,1.18-1.47,1.18-1.47l-4.25-1.95Z"/><path class="cls-5" d="M227.05,161.18s10,.58,10.44,0-1,2.75-1,2.75a15.32,15.32,0,0,0-7.78,0Z"/><path class="cls-5" d="M31.7,391a49.53,49.53,0,0,1,31.57-28c24-7,44.13,1.39,51.74,10.12l.19,2s8.26,0,7.36,16.51-26.76-4.73-26.76-4.73L58.9,390l-26.23,5.32-2-.73Z"/><path class="cls-5" d="M86.54,371.14c1.88-3.79,5.33-6.21,10-7.77C65.37,355,38,374.24,32.16,392.46c8.86-14.82,27.27-21.67,54.38-21.32"/><path class="cls-5" d="M88.32,371.86c5.16-6.57,10.54-8.1,16.3-4.88a41,41,0,0,1,9.42,7.15L111.13,376c7.09-.24,10.51,3.52,10.23,11.1-7.7-9.77-19.06-14.32-33-15.24"/><path class="cls-5" d="M120.15,394.87c5.51,28.74-85.59,36.35-88,6.46-2.52-31.7,81.41-40.89,88-6.46"/><path class="cls-5" d="M65.41,497s4.89-12.83,13.53-14.72,12.83,1.89,14.86,4.93c0,0,1.14-10.62,11.17-8.26,0,0-1.8-6.9,2.33-8.68l1-.16,2.12,6.22v4.4l0,3L108.84,487l-3.27,3.58-2.82,1.86-5.53,2.46-6.69,1.57-8.54.73-13.1.47Z"/><path class="cls-5" d="M107.72,471.17l.14.24.39.84.38.83.31.77.26.82.19.77.19.78.12.75.11.77.06.71v1.39l-.09.71-.08.69-.15.69-.22.63-.21.64-.28.69-.28.63-.42.63-.34.62-.48.63-.48.62-.54.62-.56.55-.62.62-.67.64-.55.43-.47.39-.53.38-.62.4-.54.38-.61.32-.55.33-.61.33-.61.27-.67.32-.6.26-.68.21-.61.26-.67.22-.67.2-.74.2-.68.2-.74.15-.66.15-.75.14-.75.15-.78.15-.76.14-.79.09-.74.08-.8.08-.81.09-.8.08-.9.08L84,496l-.82.09h-.86L80,496.2l-2.27.09-2.22.09-2.2.08-2.15,0-2.21.09-2.14,0h-.14c2.6-5.92,5.44-11.82,13.14-14,5.32-1.53,10.28.48,14.12,6,1.58-5.54,3.36-10.79,12-8.5-1.23-4.9-.46-7.61,1.77-8.81"/><path class="cls-5" d="M242.29,50.86s-2-31.45,7-37,16,.78,9.6,12-16.55,25-16.55,25"/><path class="cls-5" d="M324.62,68.06s18.44-3.65,37.27-9.6,42.24-1.08,39.16,11.74-23.11,8.73-37.72,5-29.81-7.72-38.71-7.12"/><path class="cls-5" d="M303.42,112.26s23.79,8.51,30.26,14.63,18.29,20.79,6.92,29.46-23.3-4.28-26.46-12.48-6.57-23.14-10.72-31.61"/><path class="cls-5" d="M229.43,89.26a239.87,239.87,0,0,0,16-28.84c9.17-20.29,24.4-30.19,32.39-35.31,9.54-6.09,22.39-2.28,16.32,10.73S263.54,57.3,262.51,64.31s8.11,6.22,15.7-3.63,27-21.06,36.89-22.81,24.84-5.65,33,6c8.66,12.3-20.82,20-33,20-14.64,0-23,1.1-31.45,6.31s-13.47,9.89.74,10,33.19-4.3,39,2,2.47,17.92-11.85,17.25-23.32-8.86-32.3-1.95c0,0,13.23,11.55,13.26,20.86,0,7.07-4.28,14.2-15.35,12.26-12.52-2.21-17.16-7.15-17.45-18.45s-7.62-25.67-30.27-22.84"/><path class="cls-5" d="M350.19,104.15s11.16,11,15,15,14.69,8.56,19.93-.86-7.9-15.16-16.6-15.5-14.87,1.32-18.31,1.39"/><path class="cls-6" d="M117.91,164.17c-.26-7.07.39-13.59,5.63-17.58,8.62-6.65,19.54-10,31.37-12.1,12.23-2.18,23.47-2.61,31.66,2.64,6.76,4.3,9.4,12.4,12.61,19.9a19.3,19.3,0,0,0,4.44-4.5c4.85-8.14,15-12.45,30.64-13.06a28.17,28.17,0,0,0-10.43-11.57c-5.87-3.93-9.71-9.74-12-16.25a10.48,10.48,0,0,1,.36-8.4c-7-2.15-10.09-8.06-6.31-16.73,1.7-3.67,6-5.31,11-2.18,2.7,1.63,4.27,4.31,5.95,6.84,11.67-1,14.55,2.23,15.2,6.52,1.79,11.29-5.38,12.1-14.52,10.27-.17,1.81.18,3.52,2.77,5.14,14.16,9,26.14,19.4,32.21,33.55,14.88,9.72,23.25,22.5,22,40.2a49.65,49.65,0,0,1-9.76,27.29c-7.16,9.46-10.71,19.35-9.36,29.34q35.61,23.1,32.5,52.78c-1.73,16.75-11.31,27-26.91,31.55-9.16,2.67-18.15.42-26.78-3.31-.47,17.09-6.73,32.6-20.58,46-.85,6.11-3.52,8.16-6.93,8.43a21.7,21.7,0,0,1-8.24,14,211.48,211.48,0,0,1-40.2,39.59c-18.34,13.86-39.48,23.16-61.63,30.31,7.69,10.36,7.59,18.77-.3,25.64-6.06,5.12-14.2,6.66-23.44,7.09-24.39,1.29-46,.65-59.2-9-7.11-5.26-5.56-13.14-1.94-20.11-.77-1.09-1.56-2.23-2.34-3.32a15.83,15.83,0,0,1,5.4-5.67c.39-7.05,1.19-13.91,4.59-19.38,3.88-6.43,11.63-12.78,20.93-19.06-11-3.73-18.57-9.34-20.73-18.6-1.72-7.43.16-14.83,4.66-22.35-9-11.82-13-25.23-8.33-39.94,4.5-14.42,12.79-27,34.48-31.42.46-6.23,3.43-10.67,13-17.1,4.74-3.15,5.79-8.94,8.22-13.46-2.06-1.2-6.94-.81-11.53,4.1-2,2,0,5.36-.88,7.84-.51,1.56-3.19,1.5-5,1.83-1.2,9.24-5.59,14.84-12.32,17-18.67,6.08-29.5-.68-36.19-11.46-4.61-7.37-1.34-13.71,6.62-19.52-4.8-9.08-2-11.66,2.91-12.44C22.72,247,36.4,234.55,54,223.42c-7.8-25.56-3.26-44.81,18.34-57.72,13.26-7.86,27.74-8.85,45.54-1.53"/><path class="cls-7" d="M292.14,290.76l0-1.75-.17-1.69-.24-1.77-.29-1.7-.3-1.72-.46-1.64-.49-1.66-.64-1.66-.64-1.67-.7-1.66-.78-1.6-.9-1.62-1-1.62-1-1.56-1.09-1.61-1.19-1.58-1.23-1.5-1.32-1.58-1.38-1.51-1.5-1.52-1.52-1.53-1.63-1.53L272,253.61l-1.78-1.46-1.85-1.49-1.9-1.47-2-1.43-2.14-1.48-2.84-1.87-.24-1.77-.11-1-.06-.93,0-1-.05-1,.08-1,0-.93.08-1,.16-1,.08-.94.22-1,.16-1,.21-.92.3-1,.28-1,.28-.92.29-1,.36-1,.42-.92.35-1,.42-.92.48-.92.5-1,.48-.92.49-1,.56-.92.55-.9.61-1,.63-.91.62-.91.63-.91.67-.9.55-.74.56-.8.56-.73.47-.74.48-.79.43-.75.48-.8.42-.8.41-.74.42-.8.34-.8.35-.81.35-.81.35-.79.29-.8.27-.87.31-.81.26-.81.24-.86.28-.87.21-.8.23-.88.14-.86.22-.87.15-.87.14-.88.17-.86.07-.87.16-.93.09-.87.07-.94,0-.87.11-1.63,0-1.57-.05-1.53,0-1.52-.1-1.46-.18-1.42-.23-1.47-.32-1.34-.3-1.36-.39-1.36-.42-1.31-.45-1.3-.52-1.24-.58-1.25-.65-1.26-.63-1.2-.73-1.13-.71-1.2-.78-1.14-.85-1.09-.92-1.08-.9-1.1-1-1-1-1-1-1-1.13-1-1.1-1-1.2-1-1.18-.93-1.25-.93-1.32-.93-1.79-1.23-.84-1.73-.58-1.25-.66-1.26-.62-1.19-.73-1.2-.7-1.2-.77-1.14-.79-1.14-.8-1.14-.84-1.08-.84-1.09-.93-1.08-.91-1-1-1-1-1-1-1-1-1-1-1-1.13-1-1-1-1.13-.92-1.13-.92-1.19-.93-1.17-.92-1.18-.92-1.21-.86-1.26-.89-1.18-.86-1.25-.87-1.31-.87-1.26-.87-1.33-.81-.52-.37-.53-.37-.47-.42-.39-.39-.39-.41-.34-.43-.24-.47-.28-.42-.18-.47-.12-.42-.07-.47-.11-.4V109l0-.4v-.41l.19-2.33,3,.6.82.14.79.1.73.08.73.1.74.07.68,0,.66,0,.6,0,.61,0,.53,0,.54-.1.47-.1.47-.16.41-.15.33-.16.33-.16.35-.22.27-.28.28-.29.26-.27.23-.35.2-.39.2-.46.15-.53.07-.58.15-.63,0-.7,0-.76-.05-.88-.06-.88-.19-.94v-.34l-.12-.36-.06-.3-.06-.29-.12-.29-.14-.31-.13-.23-.13-.25-.12-.23-.2-.24-.19-.18-.2-.25-.2-.18-.26-.19-.26-.19-.27-.12-.33-.2-.39-.2-.4-.12-.42-.13-.53-.14-.46-.09-.59-.13-.62-.08-.66,0-.73-.08-.73,0-.81,0h-.88l-.93,0-.94.08-2.41.19-1-1.49-.33-.48-.26-.49-.33-.47-.33-.42-.32-.48L219,88.8l-.33-.41-.33-.43-.32-.37-.33-.36-.4-.31-.32-.35-.4-.25-.34-.31-.38-.25-.4-.25-.41-.19-.4-.2-.31-.13-.41-.12-.33-.15-.34-.07-.35-.12h-.32l-.26-.07h-.54l-.28,0h-.25l-.28,0-.2.06-.25.11-.22,0-.2.11-.26.11-.21.11-.2.11-.15.17-.2.17-.2.17-.21.15-.12.17-.14.24-.21.22-.15.23-.13.28-.14.24-.27.75-.3.74-.21.69-.21.7-.15.67-.15.64-.08.65-.08.64v1.11l0,.58.13.53.06.48.13.45.11.49.2.47.19.42.21.41.24.37.27.36.26.36.33.36.34.3.32.32.39.3.39.25.47.32.46.24.47.2.47.26.51.19,2.61.86-.91,1.9-.07.16-.06.24-.08.23-.08.17-.06.23-.07.17-.08.24-.06.23,0,.16-.07.24v.24l-.08.23v1.74l.06.24V109l0,.23v.25l.07.28.06.24.05.24.08.24.05.24.08.28.13.25.18.59.19.53.26.6.19.59.24.53.28.59.24.54.26.54.33.54.25.53.32.55.33.47.26.54.33.48.38.54.33.49.32.47.41.49.38.41.33.48.38.43.47.49.39.42.4.43.46.44.46.35.46.43.46.38.46.37.46.37.53.36.53.32.39.3.53.32.4.36.47.33.46.36.46.31.39.36.4.37.45.31.41.36.4.38.39.36.33.37.39.36.32.42.4.37.32.41.33.37.32.42.34.37.31.43.27.42.33.42.26.42.25.43.27.4.25.42.26.42.27.48.26.43.18.46,1.28,2.69-4.22.17-1.33.06-1.34.13-1.35.11-1.26.18-1.22.13-1.21.24-1.2.2-1.14.24-1.08.25-1.08.25-1.06.3-1,.31-1,.3-.95.39-.95.36-.87.37-.81.44-.81.44-.81.43-.74.5-.74.46,4.81,4.45,9.72,2.8.65,8.69-6.37,9.11-16.59,2.45s-21.89,6.56-22.57,6.53-44.23,6-44.64,6.13-15.63-11-15.63-11l-4.73-11.35-.2-.07-1.58-.61-1.53-.57-1.59-.48-1.55-.46-1.45-.42-1.55-.35-1.46-.3-1.46-.28-1.41-.24-1.48-.18L99,161.07,97.68,161l-1.4-.06H93.61l-1.34.06-1.34.12-1.28.19-1.29.19-1.26.28-1.28.25-1.29.35-1.25.36-1.22.42-1.22.42-1.29.54-1.2.52-1.23.54-1.21.65-1.15.65-1.22.65-1.9,1.2-1.83,1.22-1.7,1.27-1.63,1.27-1.56,1.35-1.43,1.34-1.3,1.41L61,177.62l-1.17,1.48-1.1,1.47-1,1.54-.91,1.59-.76,1.61-.7,1.61-.64,1.66-.57,1.73-.5,1.73-.35,1.78L53,195.7l-.24,1.86-.17,1.85,0,2,0,2,.11,2,.14,2.06.23,2.12.29,2.17.43,2.17.41,2.23.57,2.25.62,2.31,1,3.48-2.66,1.71-1.61,1-1.57,1-1.55,1.12-1.51,1-1.47,1.06-1.44,1.1-1.42,1.13-1.36,1.09-1.38,1.12-1.28,1.13-1.22,1.11L36.59,239l-1.22,1.18-1.1,1.19-1.09,1.19-1,1.17-1,1.25-.95,1.24-.9,1.19-.83,1.32L27.74,250l-.75,1.3-.64,1.33-.63,1.3-.56,1.32-.48,1.39L24.25,258l-.37,1.37-.3,1.46-.23,1.46L23,265l-1.8.32-.4.11-.33,0-.33.11-.29.1-.26.1-.27.12-.21.1-.2.11-.21.17-.13.1-.14.11-.13.19-.15.15-.07.19-.14.22-.07.23-.07.23v.65l0,.35v.4l.07.42L18,270l.11.54.2.53.18.6.19.65L19,273l.27.59c5.21,3.89,12.85,9.23,18.36,11.85s14.47,3.45,20.62,3.64l.07-.58,1.82-.27.4-.11.41,0,.39,0,.34,0,.34,0,.34-.06.26,0,.27-.11.21-.05.12-.06.07-.05.07-.05v-.12l.07-.17v-.12l.08-.16v-.77l-.06-.24v-.47l-.06-.23V285l-.07-.24-.06-.29v-.29l0-.24v-.59l-.06-.34v-.58l.08-.37v-.27l.07-.36.07-.28.08-.34.14-.36.2-.34.21-.34.22-.29.27-.28.46-.5.5-.45.47-.45.47-.39.48-.39.46-.39.5-.32.45-.28.49-.32.54-.28.47-.21.47-.22.49-.22.45-.14.49-.17.46-.15.46-.1.49-.09.39-.12.48,0,.48,0,.38,0,.41,0h.46l.4,0,.41.07.39.08.34.07.39.13.34.15.4.12,1.8,1-1,1.82-.21.41-.2.4-.15.46-.2.39-.21.47-.21.46-.15.46-.22.46-.19.46-.2.46-.16.46-.21.45-.21.52-.2.46-.28.46-.22.45-.2.52-.29.46-.27.45-.27.46-.27.46-.29.39-.34.45-.34.46-.34.45-.42.4-.41.38-.39.46-.5.38-.47.34-.46.32-.89.62-.83.6-.79.56-.76.55-.68.56-.68.49-.68.56-.55.51-.61.49-.54.51-.48.5-.46.45-.43.51-.4.45-.42.45-.35.45-.34.51-.28.47-.27.45L60,301l-.21.47-.2.45-.22.46-.14.47-.15.51-.13.47-.15.46-.08.52-.08.47-.06.51-.08.52-.17,1.81-3.3.68-1.88.51-1.75.51-1.69.53L48.1,311l-1.61.64-1.48.69-1.42.7-1.36.71-1.3.82-1.2.77-1.23.88-1.09.83-1.09.95-1,.95-1,1-.89,1-.88,1-.89,1L30.85,324l-.76,1.14-.76,1.14-.7,1.14-.61,1.2-.64,1.21L26.83,331l-.57,1.21-.55,1.26-.49,1.32-.5,1.28-.42,1.31-.43,1.28L23.45,340l-.3,1.33-.29,1.34-.3,1.28-.16,1.27-.16,1.33-.15,1.22,0,1.29,0,1.27,0,1.23.11,1.3,0,1.22.17,1.24.18,1.17.25,1.24.24,1.17.31,1.24.32,1.19.38,1.17.38,1.2.43,1.11.53,1.19.51,1.14.49,1.19.61,1.13.63,1.14.65,1.08.65,1.13.71,1.08.78,1.15.72,1.07L32.6,378l-1,1.59-.34.68-.43.7-.32.68-.36.68-.28.69-.36.63-.27.69-.3.69-.2.64-.27.69-.23.68-.19.64-.16.69-.22.66-.14.61-.15.7-.08.64-.16.63-.08.7V393l-.07.64,0,.63v.7l0,.66.06.63.07.65,0,.64,0,.64.15.66.11.65.13.64.24.77.18.82.26.72.32.78.33.7.31.64.39.72.39.66.38.61.45.66.46.6.54.55.53.61.51.54.6.55.6.55.65.5.66.54.66.5.66.45.73.5.79.42.72.45.87.44.79.44.87.39.84.39.89.38.92.39.93.32,1,.39,4.31,1.52-3.65,2.43-.8.61-.82.55-.9.6-.82.56-.74.61-.81.55-.82.6-.76.56-.73.62-.74.55-.69.61-.74.55-.69.57-.68.61-.68.54-.62.64-.67.53-.62.58-.54.61-.62.57-.55.56-.55.55-.53.63-.48.56-.49.57-.47.56-.42.58-.42.55-.4.57-.35.58-.41.57-.29.5-.27.46-.22.51-.27.53-.21.5-.21.52-.21.53-.21.52-.22.56-.2.53-.14.57-.15.57-.14.59-.15.58-.14.57-.15.58-.08.59-.15.62-.08.58-.08.65-.14.57-.09.65-.08.64-.07.63,0,.58-.07.64-.09.65V455l-.1.64-.06.7V457l-.1,1.41-1.09.76-.41.28-.41.33-.33.29-.33.27-.36.34-.33.27-.34.34-.27.28-.29.35-.26.33-.21.29-.21.34-.21.22.19.25.14.18.13.24.14.17.44.67.14.18L19,465l.2.18.13.24.65,1c19.77,2.33,42.71,2.9,79.67-4.41l4.31-1.45,2.1-.68,2-.67,2-.74,2-.74,2.09-.73,2-.74,2-.79,2-.79,2-.8,2-.8,2-.84,2-.86,2-.86,1.9-.91,2-.92,1.88-.91,1.89-.93,1.9-1,1.89-1,1.89-1,1.83-1,1.82-1,1.84-1.09,1.75-1.1,1.83-1.15,1.76-1.09,1.77-1.23,1.77-1.15,1.75-1.22,1.71-1.26,1.7-1.27,1.29-.94,1.28-1,1.23-1,1.28-1,1.23-1,1.29-1,1.25-1.06,1.28-1.06,1.22-1,1.22-1.12,1.3-1.06,1.23-1.11,1.22-1.18,1.23-1.11,1.22-1.18,1.24-1.24,1.3-1.18,1.21-1.23,1.24-1.24,1.23-1.29,1.23-1.29,1.24-1.35,1.22-1.29,1.31-1.42,1.22-1.35,1.23-1.4,1.23-1.48,1.23-1.45,1.24-1.48,1.31-1.52,1.24-1.58,1.36-1.7.55-.45.34-.34.34-.34.4-.32.36-.34.34-.34.26-.4.36-.33.34-.33.27-.41.28-.34.33-.4.21-.39.28-.33.26-.4.29-.41.21-.46.21-.39.2-.4.22-.46.2-.4.22-.46.12-.41.23-.46.13-.45.14-.46.16-.53.13-.46.08-.52.14-.47.08-.52.3-1.85,1.82-.17h.19l.21,0,.27-.06.2,0,.2,0,.2-.12.14-.05.2-.1.2-.06.13-.1.21-.12.14-.17.2-.11.14-.17.21-.17.14-.17.14-.23.2-.22.13-.23.15-.29.13-.28.14-.29.14-.34.14-.36L217,373l.07-.34.14-.47.08-.4.15-.51.08-.47.14-1,1.64-1.69,1.23-1.24,1.17-1.23,1.09-1.29,1.09-1.25,1-1.3,1-1.31,1-1.3.91-1.37.89-1.3.83-1.37.77-1.31.75-1.36.7-1.38.68-1.43.64-1.38.57-1.43.55-1.38.58-1.44.5-1.45.43-1.44.36-1.5.42-1.45.31-1.49.29-1.45.28-1.51.25-1.51.16-1.57.17-1.52.17-1.51.08-1.56.17-4.21,3.5,1.48.81.33.79.33.79.33.8.26.8.27.8.26.8.27.79.26.74.21.79.21.82.2.78.21.81.14.8.16.81.16.71.08.8.09.81.08.82,0,.72,0,.79,0,.82,0,.8,0,.72-.09.81-.09.82-.08.74-.08.79-.14.83-.22.8-.14.74-.25,1.41-.41,1.35-.47,1.34-.47,1.22-.54,1.28-.53,1.22-.59,1.16-.6,1.14-.66,1.08-.72,1-.71,1-.72,1-.77.88-.78,1-.9.82-.84.81-.9.83-1,.76-1,.7-1,.68-1,.62-1.09.64-1.14.55-1.14.49-1.21.49-1.26.42-1.27.43-1.27.3-1.38.37-1.4.22-1.39.22-1.44.17-1.52.16-1.75.11-1.8Z"/><path class="cls-6" d="M131.28,233.92s5.13,2.54,6.37,4.21,7.88-1.44,7.76-5.1-2.47-6.8-3.9-8.53-7.68-4.22-8.11-3.88a33.65,33.65,0,0,0-2.26,5.94c0,.42.14,7.36.14,7.36"/><path class="cls-8" d="M219.11,157.61c-6.69,0-12.8.17-18.28.48l.34-.27.34-.28.34-.28.34-.28.33-.29.33-.27.28-.34.36-.28.27-.33.34-.28.27-.35.27-.4.29-.32.25-.35.22-.4.43-.68.47-.69.48-.67.54-.63.54-.57.56-.61L209,149l.61-.55.67-.5.68-.5.76-.49.74-.5.8-.43.82-.44.81-.44.87-.37.95-.36.95-.39.94-.3,1-.31,1.07-.3,1.07-.25,1.07-.25,1.15-.24,1.2-.2,1.21-.25,1.22-.12,1.26-.18,1.35-.11,1.34-.13,1.33-.06,4.22-.17-1.28-2.69-.18-.47-.26-.42-.27-.48-.26-.42-.25-.41-.27-.41-.25-.43-.26-.42-.33-.42-.27-.42-.32-.43-.33-.37-.31-.42-.34-.37-.33-.41-.39-.37-.32-.42-.39-.36-.33-.37-.39-.36-.4-.38-.41-.36-.45-.31-.4-.37-.39-.36-.46-.31-.45-.36-.48-.33-.4-.36-.53-.32-.39-.3-.53-.32-.53-.36-.46-.37-.46-.37-.46-.38-.46-.42-.46-.36-.46-.44-.4-.43-.39-.42-.47-.49-.38-.43-.33-.48-.38-.41-.41-.48-.31-.48-.34-.49-.38-.54-.33-.48-.26-.54-.33-.47-.32-.55-.25-.53-.33-.54-.26-.54-.24-.54-.28-.59-.25-.53-.18-.59-.27-.6-.18-.53-.18-.59-.14-.25-.07-.28-.05-.24-.08-.24-.05-.24-.06-.24-.07-.28v-.25l0-.23v-.23l-.06-.24v-1.74l.08-.23v-.24l.07-.24,0-.17.06-.22.08-.24.07-.17.06-.23.08-.17.08-.23.06-.24.07-.16.91-1.9-2.61-.86-.51-.19-.47-.26-.47-.2-.46-.24-.47-.32-.39-.25-.39-.3-.32-.32-.34-.3-.33-.36-.26-.36-.27-.37-.24-.36-.21-.41-.19-.42-.2-.47-.11-.49-.13-.45-.07-.48-.12-.53,0-.58v-.52l0-.59.07-.64.08-.65.15-.64.15-.67.21-.7.21-.69.3-.74.27-.75.14-.24.13-.28.15-.23.21-.22.14-.24.12-.17.21-.15.2-.17.2-.17.15-.17.2-.11.21-.11.26-.11.2-.11.21,0,.26-.11.2-.06.28,0h.25l.28,0,.26,0h.28l.26.06.32,0,.35.12.34.07.33.15.41.12.31.13.4.2.41.19.4.25.38.25.34.31.4.25.32.35.39.31.34.36.32.37.33.43.33.41.25.43.32.48.33.42.33.47.26.49.32.48,1,1.5,2.41-.2.94-.08.93,0h.88l.81,0,.73,0,.73.08.66,0,.62.08.59.14.46.08.53.14.43.13.39.12.39.2.33.19.27.13.26.19.26.19.2.18.2.25.19.18.2.24.12.23.13.25.13.23.14.31.12.29.06.29.06.3.12.36v.34l.19.94.06.88.05.88,0,.76,0,.7-.15.63-.07.58-.15.53-.2.46-.2.39-.22.35-.27.27-.28.29-.27.28-.34.22-.34.16-.33.16-.41.15-.47.16-.47.1-.54.1-.53,0-.61,0-.6,0-.66,0-.68,0-.74-.07-.73-.1-.73-.08-.79-.1-.82-.14-3-.6-.19,2.33v.41l0,.4v.49l.12.4.07.47.12.42.19.47.27.42.24.47.34.43.39.41.39.39.47.42.53.37.52.37,1.33.81,1.26.87,1.31.87,1.25.87,1.18.86,1.27.89,1.2.85,1.18.93,1.17.92,1.19.93,1.13.92,1.13.92,1,1,1.12,1,1,1,1,1,1,1,1,1,1,1,.91,1,.94,1.08.83,1.08.84,1.09.8,1.14.79,1.14.77,1.14.7,1.2.73,1.2.62,1.19.66,1.26.58,1.25.84,1.73,1.79,1.23,1.31.93,1.26.93,1.18.93,1.2,1,1.1,1,1.13,1,1,1,1,1,1,1,.9,1.1.92,1.08.85,1.09.78,1.14.71,1.2.73,1.13.63,1.2.65,1.26.57,1.25.53,1.24.45,1.3.42,1.31.39,1.36.3,1.36.32,1.34.23,1.47.18,1.42.1,1.46,0,1.52,0,1.53,0,1.57-.11,1.63,0,.87-.07.94-.09.87-.15.93-.08.87-.17.86-.14.88-.15.87-.23.87-.13.86-.23.88-.21.8-.28.87-.24.86-.26.81-.31.81-.27.87-.29.8-.35.8-.35.8-.35.81-.34.8-.42.8L273,207l-.42.8-.48.8-.43.75-.48.79-.48.74-.55.73-.56.8-.55.74-.68.9-.62.91-.62.91-.62.91-.62,1-.55.9-.56.92-.49,1-.48.92-.5,1-.48.92-.42.92-.35,1-.42.92-.36,1-.28,1-.29.92-.28,1-.3,1-.2.92-.17,1-.22,1-.08.94-.16,1-.08,1v.93l-.09,1,.05,1,0,1,.06.93.11,1,.24,1.77c-5.44,1.41-10.87,1.66-16.24-.37-7.2-2.69-11.91-8.49-14.82-16.67-8.73,11.62-18.85,19-30,23.25-9,10.55-24.73,9-32.41,1.43-13.38-2-22.82-7.58-29.9-15.47q4.56-7.54.23-11.73a24.59,24.59,0,0,1-3.27,9.73c-3-.24-5.71.82-8.41,2.06-6.14,2.89-10.63,7.15-12.76,12.5-7.73,19-16.66,27.36-29.06,27.67A51.86,51.86,0,0,0,79.17,256c-2.67-6.83-7.38-12.46-12.85-18-4.17-4.2-7-9.15-10-13.89l-1-3.48-.62-2.31-.57-2.25-.41-2.23-.43-2.17L53,209.54l-.23-2.12-.15-2.06-.1-2,0-2,0-2,.17-1.85L53,195.7l.33-1.88.34-1.78.5-1.73.57-1.73.64-1.66.7-1.61.76-1.61.91-1.59,1-1.54,1.1-1.47L61,177.62l1.23-1.41,1.3-1.41,1.43-1.34,1.56-1.35,1.63-1.27,1.7-1.27,1.83-1.22,1.89-1.2,1.22-.65,1.16-.65,1.21-.65,1.23-.54,1.2-.52,1.29-.54,1.22-.42,1.22-.42,1.26-.36,1.28-.35,1.28-.25,1.26-.28,1.29-.19,1.27-.19,1.35-.12,1.35-.06h2.66l1.4.07,1.35,0,1.38.17,1.48.18,1.41.24,1.46.28,1.46.3,1.55.35,1.45.42,1.55.46,1.59.48,1.53.57,1.58.61,4.6,1.81c5.57,2.57,10.82,7.86,16.06,13.92a125.91,125.91,0,0,0,49.68-11.3c5.42-.11,13.83,1.16,23.26,2.3,8.81.42,13.84-2.83,16.21-8.62-.46-3.59-2.49-5.49-6.17-5.63"/><path class="cls-9" d="M190.8,167.26c6.09-3.66,14.08-7.48,24.79-7,10.22.47,8.53,8.23-2,10.08-9.61,1.65-17.44-1.24-22.77-3.09"/><path class="cls-10" d="M167.18,136.33c-.26,0-.53,0-.81,0a102.13,102.13,0,0,0-19.59,3l-1,.25-1.38.41-1.55.48-.49.14-2.9,1c-1.93.74-3.86,1.57-5.75,2.48l-.49.25c-.46.22-.92.44-1.34.68-.75.37-1.48.78-2.21,1.18a2.26,2.26,0,0,1-.26.14c-.47.29-1,.57-1.43.85s-1.18.71-1.77,1.08c-4.13,2.69-4.6,9.67-4.48,17.51a36.9,36.9,0,0,1,10.51,10.59c.76.09,1.51.18,2.3.25,1.4.14,2.81.27,4.25.37,1,0,1.92.07,2.85,0,1.49,0,3,0,4.52-.11l.81-.05c.64,0,1.27-.11,1.91-.18a67.35,67.35,0,0,0,11-2.2c.16-.05.33-.08.48-.14,1.69-.49,3.44-1,5.26-1.7,1.55-.58,3.18-1.22,4.79-2,9.72-4.15,19.16-8,28.48-11.8-5.85-12.51-12.4-23.63-31.76-22.56m19,23-.35,0c-1.09.07-2.14.16-3.2.26l-.85.08c-.81.09-1.62.18-2.42.29-.47,0-.92.12-1.39.17l-1.58.25c-.68.1-1.33.22-2,.33l-.53.11a83.16,83.16,0,0,0-14.46,4c-.64.24-1.25.49-1.86.74l-.93.37c-.77.32-1.54.68-2.29,1a3.89,3.89,0,0,0-.41.19c-.76.35-1.54.73-2.29,1.1l-.45.24c-.67.36-1.37.71-2,1.07l-1,.55-1.37.79c-1.78,1.05-3.51,2.15-5.2,3.28l.14-.1a48.61,48.61,0,0,1,11-9.28c.19-.12.41-.23.61-.36l.78-.46c.29-.14.57-.29.85-.45l.59-.3a9.2,9.2,0,0,1,.89-.44l.59-.29.87-.4.7-.29.77-.33c.32-.12.65-.23,1-.37l.53-.18a42.09,42.09,0,0,1,5-1.47c.83-.21,1.69-.38,2.54-.53l.32-.07c.7-.12,1.43-.22,2.16-.33l1.05-.12c.61-.07,1.25-.13,1.88-.18l1.28-.09,1.29,0c.55,0,1.12,0,1.68,0s1.07,0,1.61,0l.95,0c.8,0,1.63.09,2.45.15l.69,0c.89.07,1.8.16,2.71.29a2.7,2.7,0,0,1,.41,0c1,.12,2,.27,3,.44-1.3,0-2.56.09-3.82.16m-45.36,1.56h0c-.09-.59-.2-1.17-.34-1.72a2.74,2.74,0,0,0,0-.28c-.1-.43-.24-.86-.37-1.29a28.09,28.09,0,0,0-1.18-3.09,5.79,5.79,0,0,0-.37-.75,1.39,1.39,0,0,0-.16-.35,27,27,0,0,0-1.89-3.26,20.9,20.9,0,0,1,2.9,2.63,13.21,13.21,0,0,1,1,1.17,11.34,11.34,0,0,1,1.28,2.34v0c.09.23.17.5.25.74a1,1,0,0,0,.09.3,2.66,2.66,0,0,0,.07.39c0,.17.07.35.1.52a1.45,1.45,0,0,0,0,.28,10.59,10.59,0,0,1,0,2.63c0,.08,0,.18,0,.25a15.59,15.59,0,0,1-1,3.44,21.85,21.85,0,0,0-.21-4"/><path class="cls-6" d="M118.08,264.86c9.42,1,18.91,1.95,28.34,2.91,3.51,4.41,4.46,10.52,3.5,18.48a53.87,53.87,0,0,1-7.3,14.31c-9-1.19-17.15-3.09-26.09-4.28,8.43.4,16,1.54,24.46,1.94,6.83-7.14,9.28-16.15,5.29-27.82l-28.2-5.54"/><path class="cls-6" d="M152.88,275.39c-7.57.63-14.7,1.92-19.78,5.56-7.77-7.38-15.83-12.09-24.37-13.08q10.63-.62,24.34,10.8c6.83-3.28,13.39-3.66,19.81-3.28"/><path class="cls-6" d="M111,260c6.71,12.66,6.74,25,.73,37.19A65.81,65.81,0,0,0,111,260"/><path class="cls-6" d="M133.73,275.72c1.67.07,3.08-.57,3.1-1.32s-1.37-1.52-3-1.6-3.09.53-3.11,1.34,1.3,1.52,3,1.58"/><path class="cls-6" d="M164.38,351.43c7.6-2.42,14.18-7.06,14.12-24a67.91,67.91,0,0,0-1-18.21c1.37,1,2.76,2.1,4.15,3.15-.5,8.51-1.07,17.07-2.3,25.37-4.27,11.51-9.62,13-15,13.69"/><path class="cls-6" d="M204.78,264.31l19.69-.94c4.92,4.46,7.69,10.82,8.26,19.13l-1.5,1.17c.27-7-1.75-13.16-7.2-18.05Z"/><path class="cls-6" d="M242.56,263c-6.73,4.51-10.62,11.89-12.81,20.91.43-11.25,3.61-19.47,12.81-20.91"/><path class="cls-6" d="M253.18,269.84c-12.09-.54-18.17,4.76-20.8,13.3,1.83-11.78,8.11-17.25,20.8-13.3"/><polygon class="cls-6" points="216.05 242.23 218.44 253.47 204.49 250.99 215.41 251.31 216.05 242.23"/><path class="cls-6" d="M201.68,265.3,204.39,277l2.41,0s-2.38-8.85-5.12-11.76"/><path class="cls-6" d="M221,274.26a54.15,54.15,0,0,0-24-3.42,27.36,27.36,0,0,1,24,3.42"/><path class="cls-6" d="M222.88,275.39a16.25,16.25,0,0,1,9.34-4.58c-4.68-.5-7.79,1.08-9.34,4.58"/><path class="cls-6" d="M222,271.84c1.28.06,2.36-.37,2.37-1s-1-1.16-2.32-1.22-2.35.44-2.37,1,1.05,1.16,2.32,1.2"/><polygon class="cls-6" points="201.27 248.69 197.66 261.1 187.85 255.96 196.38 258.83 201.27 248.69"/><polygon class="cls-6" points="185.18 256.74 185.43 263.59 178.84 262.19 183.14 261.51 185.18 256.74"/><path class="cls-6" d="M161.62,253a208.61,208.61,0,0,1,12.78,24.81l-2.32,1.5A170.48,170.48,0,0,0,161.62,253"/><path class="cls-6" d="M140.87,239.87c.68,6,1.28,12,3.45,18A52.85,52.85,0,0,0,159.91,255l-.12-1.58c-5.16,1.19-10.13,2.32-14.54,2Z"/><polygon class="cls-6" points="155.88 255.78 155.27 263.17 164.57 263.32 157.72 260.93 155.88 255.78"/><path class="cls-6" d="M169.6,269a72.7,72.7,0,0,1,10-11.74l-2.26-1A63,63,0,0,0,169.6,269"/><path class="cls-10" d="M58.07,290.16v.41l-.15.75-.15.82-.14.75-.22.69-.21.7L57,295l-.21.69-.22.63-.27.64-.28.57-.29.57-.34.57-.28.51-.34.52-.34.44-.35.52-.42.44-.4.4-.33.4-.42.4-.48.38-.4.33-.47.33-.41.33-.49.28-.54.27-.47.28-.54.26-.54.21-.53.22-.55.15-1.6.52-1.61.45-1.63.35-1.48.35-1.48.23-1.41.17-1.34.07-1.33.06H33.92l-1.28-.05-1.2-.17-1.13-.15-1.14-.23-1.06-.28L27,306.3l-1-.32-1-.41-.91-.5-.93-.45-.92-.56-.88-.55-.85-.62-.78-.68-.87-.68-.72-.78-.8-.74-.7-.79-.74-.84-.64-.9-.64-.92-.65-.89-.59-1L13,294l-.32-.59-.26-.59-.27-.6-.18-.53-.19-.59-.12-.59,0-.53-.06-.53-.07-.57.09-.53v-.53l.08-.52.13-.52.16-.58.2-.51.22-.53.22-.51.26-.51.35-.52.34-.5.42-.58.4-.5.42-.51.55-.56.47-.51.55-.56.6-.51.63-.55.61-.5.68-.56.87-.67c5.81,5,13.58,11.14,18.18,11.79,5.15.8,14.29,1.11,20.12,1.22"/><path class="cls-6" d="M48.69,304.73h0l-.54.21-.53.22-.55.15-1.6.52-1.61.45-1.63.35-1.48.35-1.48.23-1.4.17-1.35.07-1.33.06H33.92l-1.28-.05-1.2-.17-1.13-.15-1.14-.23-1.06-.28L27,306.3l-1-.32-1-.41-.91-.5-.93-.45-.46-.31c1.88-.08,2.8-3,5.84-1.21,3.77,2.3,5.93,5.37,9.7,4s1.75-4,6.07-2.57a9.59,9.59,0,0,0,4.34.24M19.3,301.84l-.4-.31-.72-.78-.8-.74-.7-.79-.74-.84-.64-.9-.64-.92-.65-.89-.59-1L13,294l-.31-.58-.26-.6-.27-.6-.18-.53-.19-.59-.12-.59,0-.53-.06-.53v-.29c1.48-.17,3.09-.05,3.65,1.38,1,2.72-.36,5.3,1.81,6.56,1.59.88,1.29,2.84,2.26,4.7"/><path class="cls-6" d="M178.45,357.56c7.61-2.44,14.25-7.08,14.12-24,.73-6.34,0-12.26-.91-18.2,1.39,1,2.71,2,4.08,3.08a241.94,241.94,0,0,1-2.3,25.38c-4.24,11.56-9.55,13-15,13.75"/><path class="cls-6" d="M239.36,275.66c14.34,8.86,18.61,19.91,12.59,33.2-5.64,11.64-11.51,14-17.49,14.48-4.54-.3-7.41-3.35-9.54-7.69-9.3,5.93-14.66,3-19.45-1.26.07,6.13-3.41,9.91-14.48,8.52-3.28-1.12-6.2-2.41-7-4.26-4.19-1.51-5.45-4.6-5.33-8.44-4.38-1-7-3.57-8-7.75-4.76.63-5.87-4.33-5.25-11.78,4.31-18.44,17.33-24.11,36.35-21,9.74,1.45,16.82,5.65,23.15,10.64,4.85-1.56,9.63-3.11,14.49-4.66"/><path class="cls-10" d="M239.82,279.58c18.29,12.42,11.91,33.54-2.59,39.84-3.34-1.65-6.64-3.25-10-4.9a14.71,14.71,0,0,1,2.59-5.91c-.34-.25-.66-.43-1.05-.69-5.71,7.43-8.8,7.64-12,8-7.52.93-10.79-2.83-12-8.67-3.31,4.42-6.14,5.3-9,5.24-7.35-.25-7.75-7.14-6.35-17.31-2.14,3.54-4,7.43-3.28,13.59-5.24.95-8.54-1.17-10.31-5.79-1.48-3.86-.52-8.38,4.67-14-4.6,2.62-7.75,6-7.63,10.9-3.57.74-5.19-1.31-4.84-6.22,1.5-11.14,8.78-17.57,18.64-21.89,21.57-4.32,33.48,6,43.39,19.41-1.34-2.92-2.42-5.89-2.3-8.75a18.74,18.74,0,0,1,12.11-2.89"/><path class="cls-9" d="M181.91,310.85A35.87,35.87,0,0,0,201,313c1.11,5.48-1.43,8.06-6.32,8.56-8.41-1.21-12.15-5.11-12.77-10.75"/><path class="cls-6" d="M76.62,174.11c26.2-8,46.12-.34,48.71,21.2l-2.13-.09c-1.08-10-7-12.89-17.76-8.66,1.62-2.09,3.82-4,10-4.86-7-10-22-9.81-38.8-7.59"/><path class="cls-6" d="M86.3,289.09l7.34.07s-2.49,11.23-3.86,16a76.47,76.47,0,0,1,38.42,3.26c15,5.22,24.62,17.36,19.71,33.16-.07.12-.09.29-.15.4,4.49,3.34,33.42,23.55,69.72,29.07v.24l-.15.51-.08.4-.14.47L217,373l-.15.39-.14.36-.14.34-.14.29-.13.28-.15.29-.13.23-.2.22-.13.23-.15.17-.2.18-.15.16-.2.11-.14.17-.2.12-.14.1-.2.06-.2.1-.14.05-.2.12-.2,0-.2,0-.27.06-.21,0h-.19l-1.81.17-.31,1.85-.07.52-.15.47-.08.52-.13.46c-5.09-.38-13.83-1.79-26.58-6.45-22.78,18.11-35.35,17.78-45.92,13.6,12.4,2.38,26,.13,42.87-14.77-2.81-1.11-5.79-2.34-8.92-3.75a85.56,85.56,0,0,1-28.19,15c9.66-4.4,18.59-9.46,24.69-16.58A285.65,285.65,0,0,1,142.9,354.6c-6.92,15.18-15.34,24.71-22.63,34.58-.39-1-.83-2.08-1.28-3.09,9.13-11.77,19.76-24.54,25.65-45.39,4-14-3.8-23.81-15.91-29-12.93-5.49-27.45-5.79-42.82-3.38l0-2.55,1.61-.31,3-13.77-3.67-.79s-.29.8-.65,2.07ZM51.74,316.82a270.12,270.12,0,0,1,25.6-9l6-17-3-1.82,5.9.12L86.2,293c-1.2,3.46-3.41,10.38-4.62,13.72,1.49-.29,2.9-.65,4.38-.92l0,2.55a250.38,250.38,0,0,0-34.17,8.47"/><path class="cls-6" d="M190.25,394.08c-15.93,16.34-42.27,22.51-80.2,17.41l2.91-1.82c34.24,1.87,61.1-2.35,77.29-15.59"/><path class="cls-6" d="M206.83,387.86l-.06.05-.27.34-.27.41-.34.33-.36.33-.26.4-.34.34-.36.34-.4.32-.34.34-.34.33-.54.46-1.25,1.47c-7.17.7-13,.86-9.37.6s9.64-3.21,14.5-6.06"/><path class="cls-6" d="M120.17,392.5c6,31.07-92.57,39.31-95.19,7-2.74-34.29,88-44.23,95.19-7"/><path class="cls-8" d="M100.47,463.14l1.18,1.56.59,1,.58.9.59.89.45.83.45.9.39.84.38.84.31.76.26.83.19.76.19.78.12.75.11.77.06.71v1.4l-.09.7-.09.69-.13.7-.23.63-.21.63-.28.69-.28.64-.42.62-.34.62-.48.64-.49.61-.54.63-.55.55-.62.62-.67.63-.55.44-.46.39-.54.37-.62.4-.54.39-.61.31-.55.33-.61.33-.6.27-.68.32-.6.26-.68.22-.61.25-.67.22-.67.2-.74.21-.68.2-.74.14-.67.16-.74.13-.75.16-.78.14-.76.14-.8.09-.73.08-.8.08-.82.09-.79.08-.89.09-.79,0-.81.08h-.87l-2.28.15-2.27.09-2.22.09-2.2.07-2.15,0-2.21.09-2.14,0-2.08,0H59.11l-2.08,0L55,494.22l-2-.09L51,494l-2-.14-1.86-.2-1.88-.19-1.87-.25-1.8-.24-1.73-.31-1.75-.37L36.53,492l-1.67-.43-1.59-.41-1.53-.53-1.53-.47-1.48-.59-1.37-.58L26,488.25l-1.34-.65-1.25-.74-1.26-.81L21,485.23l-.58-.43-.52-.43-.47-.42-.4-.49-.39-.48-.32-.48L18,482l-.26-.47-.26-.47-.19-.55-.18-.52-.14-.54-.11-.52-.05-.59-.06-.59v-1.17l0-.57.08-.59.08-.64.06-.58.17-.64.15-.64.2-.62.15-.64.21-.63.28-.63.21-.64.28-.63.3-.63.33-.64.28-.57c26.23,4.23,53.07,4,80.93-4.16"/><path class="cls-6" d="M36.44,356.27a49.39,49.39,0,0,0-.83,18.42c-4.51-6.32-3.71-12.41.83-18.42"/><path class="cls-6" d="M46.23,362.51a29.88,29.88,0,0,0-9.69,11.81l-1.44-1.05c2.94-6.14,6.67-9.54,11.13-10.76"/><path class="cls-6" d="M236.9,141.17c1.89,19.41-7.33,29.19-19.38,36.52-16.2,9.85-28.07,11.49-38.51,10.52,12.94-.64,26.5-2.6,43-15.42,11.6-9,15.37-19.82,13.19-31.57Z"/><path class="cls-6" d="M260.16,149.35c2.08,13,0,25-7.2,36.1-12.35,19.11-32.55,29.33-57.51,35.27-8.08,1.93-16.13,3.83-24.12,1.69-5.47-1.44-9.21-4.93-12.49-8.27,11.84,10.47,29.06,9.29,49,2.35,16.45-5.64,29.59-13.92,39.07-25.45,11.64-14.25,14.54-28.25,11.33-42.64Z"/><path class="cls-6" d="M223.2,236c5.07-9.61,8.61-19.39,8.33-29.62l1.62-1.09c.47,10.75-3.34,20.94-10,30.71"/><path class="cls-6" d="M158.33,205.64c-4.21-.33-8.42-.81-11.32.54-4.66,2.2-3.32,5.89-2.52,9.12.65-2.54,1.82-4.59,4.32-5.48,9,14.85,19.33,28.35,42.18,27,11-5.45,16.19-13,20.54-20.88-12.45,4.1-24.41,6.59-35.26,6.32-10.48-1.19-18.88-6.21-26.1-13.33,1.44-1.92,4.67-2.67,8.16-3.24"/><path class="cls-11" d="M209.39,216.55c-11.73,3.73-22.87,6-33.12,5.66-9.73-1.1-17.75-5.51-24.59-11.87a42.29,42.29,0,0,0,14.43,18.06c3.39-1.62,7.56-2.68,14-2.47a27.13,27.13,0,0,1,16.69,5.94c4.61-3.26,8.8-8.53,12.55-15.32"/><path class="cls-12" d="M166.65,228.77a51.48,51.48,0,0,0,13,6.08,19.4,19.4,0,0,0,16.12-2.26c-9.17-7-18.93-7.78-29.11-3.82"/><path class="cls-6" d="M156.87,174.17c6.89.27,13.26,7.2,14.22,15.41s-3.9,14.68-10.72,14.41-13.18-7.21-14.16-15.42,3.9-14.67,10.66-14.4"/><path class="cls-13" d="M157,175.06c6.48.26,12.44,6.75,13.3,14.49s-3.63,13.76-10,13.49S147.87,196.29,147,188.6s3.62-13.81,10-13.54"/><path class="cls-6" d="M155.11,192.09a2.48,2.48,0,0,1,2.16,2.36,1.7,1.7,0,0,1-1.64,2.15,2.54,2.54,0,0,1-2.1-2.3c-.1-1.3.57-2.25,1.58-2.21"/><path class="cls-6" d="M192.42,170c6,.26,11.69,5.62,13.63,12.48A67.41,67.41,0,0,1,182.43,188a22.86,22.86,0,0,1-.79-3.58c-.92-8.22,3.9-14.69,10.78-14.42"/><path class="cls-13" d="M192.53,171c5.69.22,11.09,5.35,12.84,11.85A69.76,69.76,0,0,1,183.24,188a19.58,19.58,0,0,1-.79-3.55c-.87-7.68,3.61-13.75,10.08-13.47"/><path class="cls-6" d="M210.13,171.79a32.88,32.88,0,0,1,5.09,6.56l-1.55,1.12a21.23,21.23,0,0,0-5.6-7.76Z"/><path class="cls-6" d="M223.9,166.16s3.79,1.09,3.83,2.14,1.18-1.47,1.18-1.47l-4.25-1.94Z"/><path class="cls-6" d="M223.5,159s10,.59,10.44,0-1,2.76-1,2.76a15.35,15.35,0,0,0-7.77,0Z"/><path class="cls-6" d="M28.15,388.76a49.53,49.53,0,0,1,31.56-28c24-7,44.14,1.4,51.75,10.12l.19,2.05s8.26,0,7.36,16.51-26.76-4.74-26.76-4.74l-36.9,3.06-26.23,5.33-2-.74Z"/><path class="cls-8" d="M83,368.91c1.88-3.78,5.33-6.2,10-7.77-31.15-8.4-58.51,10.87-64.36,29.09,8.86-14.82,27.27-21.66,54.38-21.32"/><path class="cls-14" d="M84.77,369.64c5.15-6.58,10.54-8.11,16.3-4.89a41.07,41.07,0,0,1,9.42,7.15l-2.91,1.87c7.09-.24,10.51,3.52,10.23,11.1-7.7-9.77-19.06-14.32-33-15.23"/><path class="cls-15" d="M116.6,392.65c5.51,28.73-85.59,36.34-88,6.46-2.53-31.7,81.4-40.9,88-6.46"/><path class="cls-6" d="M61.86,494.72S66.75,481.89,75.38,480s12.84,1.89,14.87,4.94c0,0,1.14-10.63,11.16-8.27,0,0-1.79-6.9,2.34-8.68l1-.16,2.12,6.22v4.41l0,3-1.62,3.26L102,488.32l-2.81,1.86-5.54,2.47L87,494.21l-8.54.73-13.11.48Z"/><path class="cls-14" d="M104.17,468.94l.14.24.39.84.38.83.31.77.26.83.19.76.19.78.12.75.11.77.06.71v1.39l-.09.71-.09.69-.14.7-.22.63-.21.63-.28.69-.28.64-.42.62-.34.62-.48.64-.49.61-.54.63-.55.55-.62.62-.67.63-.55.44-.47.39-.53.37-.62.4-.54.39-.61.31-.55.33-.61.33-.6.27-.68.32-.6.26-.69.22-.6.25-.67.22-.67.2-.74.21-.68.19-.74.15-.67.15-.74.14-.75.16-.78.14-.76.15-.79.09-.74.07-.8.08-.81.09-.8.08-.89.09-.79,0-.82.08h-.86l-2.28.15-2.28.09-2.21.09-2.2.08H67.61l-2.21.1-2.14,0h-.14c2.6-5.92,5.45-11.81,13.14-14,5.31-1.54,10.28.48,14.13,5.94,1.57-5.54,3.35-10.79,12-8.5-1.23-4.9-.46-7.61,1.77-8.81"/><path class="cls-16" d="M372.6,121.65a16.72,16.72,0,0,1-11-4.7c-3.78-3.92-14.86-14.86-15-15l-.14-.14h.2a42.54,42.54,0,0,0,4.45-.48,80,80,0,0,1,11.55-1c.75,0,1.52,0,2.31,0,6.18.24,14.22,3.1,16.93,7.92a7.47,7.47,0,0,1-.26,7.7,10,10,0,0,1-7.6,5.49A11.16,11.16,0,0,1,372.6,121.65ZM346.84,102c1.3,1.28,11.29,11.15,14.84,14.83,2.56,2.66,7.76,5.16,12.31,4.56a9.8,9.8,0,0,0,7.49-5.4,7.32,7.32,0,0,0,.26-7.53c-2.69-4.78-10.66-7.61-16.8-7.85a77.06,77.06,0,0,0-13.83.91C349.44,101.75,348,102,346.84,102Z"/><g class="cls-17"><rect class="cls-18" x="148.57" y="184.43" width="15.66" height="17.61"/></g><g class="cls-19"><rect class="cls-20" x="184.34" y="180.28" width="13.61" height="7.57"/></g><g class="cls-21"><polygon class="cls-22" points="230.96 10.3 259.61 6.6 265.86 47.88 237.21 51.58 230.96 10.3"/></g><g class="cls-23"><polygon class="cls-24" points="317.06 54.25 398.19 43.77 403.71 80.26 322.58 90.73 317.06 54.25"/></g><g class="cls-25"><polygon class="cls-26" points="292.02 111.05 347.49 103.89 356.25 161.8 300.79 168.96 292.02 111.05"/></g><g class="cls-27"><polygon class="cls-28" points="209.51 22.17 350.81 3.93 369.62 128.15 228.32 146.39 209.51 22.17"/></g><g class="cls-29"><polygon class="cls-30" points="334.84 119.05 376.48 141.63 398.57 106.89 356.93 84.31 334.84 119.05"/></g></g></g></svg>